<?xml version="1.0" encoding="utf-8"?>
<!-- Generator: Adobe Illustrator 26.1.0, SVG Export Plug-In . SVG Version: 6.00 Build 0)  -->
<svg version="1.1" id="Ebene_1" xmlns="http://www.w3.org/2000/svg" xmlns:xlink="http://www.w3.org/1999/xlink" x="0px" y="0px"
	 viewBox="0 0 226.7716522 340.1574707" style="enable-background:new 0 0 226.7716522 340.1574707;" xml:space="preserve">
<style type="text/css">
	.st0{fill-rule:evenodd;clip-rule:evenodd;fill:#9D9D9C;}
	.st1{fill-rule:evenodd;clip-rule:evenodd;fill:#3C3C3B;}
	.st2{fill-rule:evenodd;clip-rule:evenodd;fill:none;stroke:#706F6F;stroke-miterlimit:3.8636899;}
	
		.st3{fill-rule:evenodd;clip-rule:evenodd;fill:none;stroke:#DADADA;stroke-width:0.8;stroke-linecap:round;stroke-linejoin:round;stroke-miterlimit:3.8636899;}
	.st4{fill:#72ACC8;}
	.st5{opacity:0.8;fill:#F18972;}
	.st6{opacity:0.8;fill:url(#SVGID_1_);}
	.st7{fill:#F18972;}
	.st8{opacity:0.8;fill:url(#SVGID_00000083081247980602343470000012354673103317096106_);}
	.st9{fill:url(#SVGID_00000103260296103966032580000000291625928963671428_);}
	.st10{fill:url(#SVGID_00000067211674239320324660000014515526720523343253_);}
	.st11{fill:#F8BDAA;}
	.st12{opacity:0.65;fill:url(#SVGID_00000057107002780847981490000015833951545537605267_);}
	.st13{fill:none;stroke:#FFFFFF;stroke-width:0.5;stroke-linecap:round;stroke-linejoin:round;stroke-miterlimit:3.8636899;}
	.st14{fill:none;stroke:#419D64;stroke-width:1.5486932;stroke-linecap:round;stroke-miterlimit:3.8636899;}
	.st15{fill:#419D64;}
</style>
<g>
	<polygon class="st0" points="118.198288,56.4929237 166.2979736,110.8750153 147.1153564,127.7835312 101.3061371,71.6672287 	"/>
	<polygon class="st1" points="166.2979736,110.8750153 166.2979736,138.3740692 147.1153564,127.7835312 	"/>
	<line class="st2" x1="101.3061371" y1="71.6672287" x2="147.1153564" y2="127.5193863"/>
	<line class="st3" x1="166.2979736" y1="110.8750153" x2="147.1153564" y2="127.7835312"/>
</g>
<g>
	<polygon class="st0" points="125.716713,199.9767914 166.2979736,252.4672241 147.1153564,269.3757324 108.4202347,211.9401703 	
		"/>
	<polygon class="st1" points="166.2979736,252.4672241 166.2979736,279.9662781 147.1153564,269.3757324 	"/>
	<line class="st2" x1="108.4202347" y1="211.9401703" x2="147.1153564" y2="269.1116028"/>
	<line class="st3" x1="166.2979736" y1="252.4672241" x2="147.1153564" y2="269.3757324"/>
</g>
<polygon class="st4" points="137.071228,282.7485962 151.284729,283.6645508 112.6158524,225.1940155 100.1486893,224.3342133 "/>
<polygon class="st4" points="83.4384232,223.1765137 97.4384232,224.1766205 133.4020386,282.5147705 119.3133011,281.5637207 "/>
<path class="st5" d="M124.2137527,122.2876053L84.4154968,69.8192596
	c0.1928711,0.394043,20.5042114,46.5299377,20.5042114,82.8082581c0,35.7105103-6.6700668,68.7153625-7.4812851,71.5491028
	l35.8748703,58.3871918c0.8112183-2.8337402,11.6265259-41.3170624,11.6265259-77.0275726
	C144.9398193,169.2579193,124.4066238,122.6816483,124.2137527,122.2876053z"/>
<linearGradient id="SVGID_1_" gradientUnits="userSpaceOnUse" x1="82.9183426" y1="245.1687622" x2="165.0066223" y2="163.0804749">
	<stop  offset="0.2582135" style="stop-color:#BCE4FA"/>
	<stop  offset="0.6233844" style="stop-color:#F5FBFF"/>
	<stop  offset="0.8286529" style="stop-color:#72ACC8"/>
	<stop  offset="1" style="stop-color:#00B1EB"/>
</linearGradient>
<path class="st6" d="M119.3133011,281.5637207l14.2758102,0.9199219c2.8338013-10.482666,11.350708-44.7518311,11.350708-77.9475098
	c0-39.5849609-19.8798752-80.5248947-20.7260666-82.2485275l-12.5678711,6.1679611
	c0.1928711,0.394043,19.2939377,39.8022461,19.2939377,76.0805664
	C130.9398193,240.2466431,120.1245193,278.7299805,119.3133011,281.5637207z"/>
<path class="st7" d="M133.4020386,282.5147705l4.0563965,0.2614136
	c2.4445801-9.8953247,11.0707397-47.1571655,11.0707397-80.1399536c0-38.4257812-20.5820236-81.6572189-20.7900314-82.0898361
	l-3.6044922,1.7338867c0.2036133,0.4243164,20.3945236,42.8549728,20.3945236,80.3559494
	C144.5291748,236.0476685,135.5302734,274.006958,133.4020386,282.5147705z"/>
<linearGradient id="SVGID_00000140006394644953538720000017355080579552456845_" gradientUnits="userSpaceOnUse" x1="97.9939499" y1="243.6713104" x2="183.7341766" y2="157.931076">
	<stop  offset="0.2582135" style="stop-color:#BCE4FA"/>
	<stop  offset="0.6233844" style="stop-color:#F5FBFF"/>
	<stop  offset="0.8286529" style="stop-color:#72ACC8"/>
	<stop  offset="1" style="stop-color:#00B1EB"/>
</linearGradient>
<path style="opacity:0.8;fill:url(#SVGID_00000140006394644953538720000017355080579552456845_);" d="M137.071228,282.7485962
	l14.213501,0.9159546c3.3796997-13.6711426,11.2000122-48.8827515,11.2000122-82.0014648
	c0-39.5175781-21.1220703-85.0825119-22.0214844-87.0029221l-12.6787033,5.9365234
	c0.2070312,0.4423828,20.7001877,44.63134,20.7001877,81.0663986
	C148.4847412,235.126709,139.7749634,272.0842285,137.071228,282.7485962z"/>
<linearGradient id="SVGID_00000051343906699807950610000018168243705347996308_" gradientUnits="userSpaceOnUse" x1="88.9526443" y1="115.3536301" x2="107.5353165" y2="83.1674957">
	<stop  offset="0.194151" style="stop-color:#BCE4FA"/>
	<stop  offset="0.4677678" style="stop-color:#EAF6FE"/>
	<stop  offset="0.7444785" style="stop-color:#A1DAF8"/>
</linearGradient>
<polygon style="fill:url(#SVGID_00000051343906699807950610000018168243705347996308_);" points="72.6706009,75.6912918 
	111.6458817,128.4555664 124.1346512,122.2802811 84.4154968,69.8192596 "/>
<linearGradient id="SVGID_00000000201464272384693360000015151436378827652493_" gradientUnits="userSpaceOnUse" x1="104.8158264" y1="107.3356857" x2="122.9432755" y2="75.9380188">
	<stop  offset="0.194151" style="stop-color:#BCE4FA"/>
	<stop  offset="0.4677678" style="stop-color:#EAF6FE"/>
	<stop  offset="0.7444785" style="stop-color:#A1DAF8"/>
</linearGradient>
<polygon style="fill:url(#SVGID_00000000201464272384693360000015151436378827652493_);" points="87.4260101,68.3880692 
	99.6320114,62.4792557 140.4632568,114.6601639 127.7845535,120.5966873 "/>
<polygon class="st11" points="84.4154968,69.8192596 87.4260101,68.3880692 127.7845535,120.5966873 124.1346512,122.2802811 "/>
<linearGradient id="SVGID_00000035524470434502733770000002604849027099313821_" gradientUnits="userSpaceOnUse" x1="67.3015137" y1="195.2265778" x2="129.4724884" y2="159.3321533">
	<stop  offset="0" style="stop-color:#FFFFFF"/>
	<stop  offset="0.2962098" style="stop-color:#72ACC8"/>
	<stop  offset="0.5358952" style="stop-color:#F5FBFF"/>
	<stop  offset="1" style="stop-color:#00B1EB"/>
</linearGradient>
<path style="opacity:0.65;fill:url(#SVGID_00000035524470434502733770000002604849027099313821_);" d="M111.6458817,128.4555664
	L72.6706009,75.7605667c0.1928711,0.394043,19.2939453,39.8022461,19.2939453,76.0805588
	c0,35.7105103-7.7149048,68.5016479-8.526123,71.3353882l35.8748779,58.387207
	c0.8112183-2.8337402,11.6265182-41.3170776,11.6265182-77.0275879
	C130.9398193,168.2578125,111.8387527,128.8496094,111.6458817,128.4555664z"/>
<line class="st13" x1="72.6706009" y1="75.6912918" x2="111.6458817" y2="128.4555664"/>
<g id="Ebene_3">
	<g>
		<g>
			<line class="st14" x1="61.9141998" y1="112.8752213" x2="78.7902756" y2="108.5230179"/>
			<g>
				<polygon class="st15" points="77.5891724,111.8530579 87.426506,106.2978363 76.1285095,106.1891861 				"/>
			</g>
		</g>
	</g>
	<g>
		<g>
			<line class="st14" x1="66.646431" y1="129.4556732" x2="83.5224991" y2="125.1034775"/>
			<g>
				<polygon class="st15" points="82.3213959,128.4335022 92.1587296,122.8782959 80.860733,122.7696381 				"/>
			</g>
		</g>
	</g>
	<g>
		<g>
			<line class="st14" x1="69.6824188" y1="147.9806976" x2="86.5584869" y2="143.6284943"/>
			<g>
				<polygon class="st15" points="85.3573914,146.9585266 95.1947174,141.4033203 83.8967209,141.2946625 				"/>
			</g>
		</g>
	</g>
	<g>
		<g>
			<line class="st14" x1="70.682518" y1="167.5058136" x2="87.5585861" y2="163.1536255"/>
			<g>
				<polygon class="st15" points="86.3574905,166.4836578 96.1948166,160.9284363 84.8968201,160.8197937 				"/>
			</g>
		</g>
	</g>
	<g>
		<g>
			<line class="st14" x1="69.3240891" y1="186.6459656" x2="86.2001572" y2="182.2937622"/>
			<g>
				<polygon class="st15" points="84.999054,185.6238098 94.8363876,180.0685883 83.5383911,179.9599304 				"/>
			</g>
		</g>
	</g>
	<g>
		<g>
			<line class="st14" x1="66.646431" y1="206.5560608" x2="83.5224991" y2="202.2038727"/>
			<g>
				<polygon class="st15" points="82.3214035,205.533905 92.1587296,199.9786835 80.860733,199.8700409 				"/>
			</g>
		</g>
	</g>
	<g>
		<g>
			<line class="st14" x1="63.8959312" y1="226.466156" x2="80.7720032" y2="222.1139526"/>
			<g>
				<polygon class="st15" points="79.5709076,225.4440002 89.4082336,219.8887787 78.1102371,219.7801208 				"/>
			</g>
		</g>
	</g>
	<g>
		<g>
			<line class="st14" x1="56.2647896" y1="96.6236115" x2="73.1408615" y2="92.2714157"/>
			<g>
				<polygon class="st15" points="71.9397583,95.6014481 81.777092,90.0462341 70.4790955,89.9375839 				"/>
			</g>
		</g>
	</g>
	<g>
		<g>
			<line class="st14" x1="89.0493088" y1="152.9399414" x2="105.9253769" y2="148.5877533"/>
			<g>
				<polygon class="st15" points="104.7242813,151.9177856 114.5616074,146.3625641 103.2636108,146.2539215 				"/>
			</g>
		</g>
	</g>
	<g>
		<g>
			<line class="st14" x1="94.6642303" y1="170.0787354" x2="111.5402985" y2="165.7265472"/>
			<g>
				<polygon class="st15" points="110.3391953,169.0565796 120.1765289,163.501358 108.8785324,163.3927002 				"/>
			</g>
		</g>
	</g>
	<g>
		<g>
			<line class="st14" x1="98.8899765" y1="187.8303528" x2="115.7660446" y2="183.4781647"/>
			<g>
				<polygon class="st15" points="114.564949,186.808197 124.4022751,181.2529755 113.1042786,181.1443329 				"/>
			</g>
		</g>
	</g>
	<g>
		<g>
			<line class="st14" x1="100.629921" y1="209.0856476" x2="117.5059891" y2="204.7334595"/>
			<g>
				<polygon class="st15" points="116.3048935,208.0634918 126.1422195,202.5082703 114.844223,202.3996277 				"/>
			</g>
		</g>
	</g>
	<g>
		<g>
			<line class="st14" x1="100.629921" y1="229.712677" x2="117.5059891" y2="225.3604736"/>
			<g>
				<polygon class="st15" points="116.3048859,228.6905212 126.1422195,223.1352997 114.844223,223.0266418 				"/>
			</g>
		</g>
	</g>
	<g>
		<g>
			<line class="st14" x1="97.2694168" y1="252.8456421" x2="114.1454849" y2="248.493454"/>
			<g>
				<polygon class="st15" points="112.9443893,251.8234863 122.7817154,246.2682648 111.4837189,246.1596222 				"/>
			</g>
		</g>
	</g>
	<g>
		<g>
			<line class="st14" x1="91.4829254" y1="277.8788757" x2="108.3589935" y2="273.5266724"/>
			<g>
				<polygon class="st15" points="107.1578979,276.85672 116.995224,271.3014832 105.6972275,271.1928406 				"/>
			</g>
		</g>
	</g>
	<g>
		<g>
			<line class="st14" x1="81.9817352" y1="135.1304932" x2="98.857811" y2="130.7782898"/>
			<g>
				<polygon class="st15" points="97.6567078,134.1083221 107.4940414,128.5531158 96.1960449,128.444458 				"/>
			</g>
		</g>
	</g>
	<g>
		<g>
			<line class="st14" x1="73.4169159" y1="134.6255188" x2="90.2929916" y2="130.2733154"/>
			<g>
				<polygon class="st15" points="89.0918884,133.6033478 98.9292221,128.0481262 87.6312256,127.9394836 				"/>
			</g>
		</g>
	</g>
	<g>
		<g>
			<line class="st14" x1="78.149147" y1="151.2059631" x2="95.0252151" y2="146.853775"/>
			<g>
				<polygon class="st15" points="93.8241119,150.1838074 103.6614456,144.6285858 92.3634491,144.519928 				"/>
			</g>
		</g>
	</g>
	<g>
		<g>
			<line class="st14" x1="81.1851349" y1="169.7309875" x2="98.061203" y2="165.3787994"/>
			<g>
				<polygon class="st15" points="96.8601074,168.7088318 106.6974335,163.1536102 95.399437,163.0449677 				"/>
			</g>
		</g>
	</g>
	<g>
		<g>
			<line class="st14" x1="82.1852341" y1="189.2561035" x2="99.0613022" y2="184.9039154"/>
			<g>
				<polygon class="st15" points="97.8602066,188.2339478 107.6975327,182.6787262 96.3995361,182.5700836 				"/>
			</g>
		</g>
	</g>
	<g>
		<g>
			<line class="st14" x1="80.8267975" y1="208.3962708" x2="97.7028732" y2="204.0440674"/>
			<g>
				<polygon class="st15" points="96.50177,207.374115 106.3391037,201.8188934 95.0411072,201.7102356 				"/>
			</g>
		</g>
	</g>
	<g>
		<g>
			<line class="st14" x1="78.149147" y1="229.5075531" x2="95.0252151" y2="225.155365"/>
			<g>
				<polygon class="st15" points="93.8241196,228.4853973 103.6614456,222.9301758 92.3634491,222.8215332 				"/>
			</g>
		</g>
	</g>
	<g>
		<g>
			<line class="st14" x1="74.4977493" y1="249.4176483" x2="91.3738174" y2="245.0654449"/>
			<g>
				<polygon class="st15" points="90.1727219,248.3954926 100.0100479,242.840271 88.7120514,242.7316132 				"/>
			</g>
		</g>
	</g>
	<g>
		<g>
			<line class="st14" x1="67.7675018" y1="118.373909" x2="84.6435776" y2="114.0217133"/>
			<g>
				<polygon class="st15" points="83.4424744,117.3517456 93.279808,111.7965317 81.9818115,111.6878815 				"/>
			</g>
		</g>
	</g>
</g>
</svg>
