<?xml version="1.0" encoding="utf-8"?>
<!-- Generator: Adobe Illustrator 26.0.3, SVG Export Plug-In . SVG Version: 6.00 Build 0)  -->
<svg version="1.1" xmlns="http://www.w3.org/2000/svg" xmlns:xlink="http://www.w3.org/1999/xlink" x="0px" y="0px"
	 viewBox="0 0 226.7716522 340.1574707" style="enable-background:new 0 0 226.7716522 340.1574707;" xml:space="preserve">
<style type="text/css">
	.st0{fill-rule:evenodd;clip-rule:evenodd;fill:#9D9D9C;}
	.st1{fill-rule:evenodd;clip-rule:evenodd;fill:#706F6F;}
	.st2{fill-rule:evenodd;clip-rule:evenodd;fill:#3C3C3B;}
	.st3{fill-rule:evenodd;clip-rule:evenodd;fill:none;stroke:#E9E9E9;stroke-linecap:round;stroke-miterlimit:3.8636899;}
	.st4{fill-rule:evenodd;clip-rule:evenodd;fill:none;stroke:#B2B2B2;stroke-linecap:round;stroke-miterlimit:3.8636899;}
	.st5{fill-rule:evenodd;clip-rule:evenodd;fill:#575756;}
	
		.st6{fill-rule:evenodd;clip-rule:evenodd;fill:none;stroke:#E9E9E9;stroke-width:0.5;stroke-linecap:round;stroke-linejoin:round;stroke-miterlimit:3.8636899;}
	.st7{opacity:0.6;fill:url(#SVGID_1_);}
	.st8{opacity:0.8;fill:url(#SVGID_00000089543765505477831310000010900449617075573404_);}
	.st9{fill:url(#SVGID_00000120519097589106569030000000303231102146596003_);}
	.st10{opacity:0.6;fill:url(#SVGID_00000177448224364041853350000016110409916728170645_);}
	.st11{fill:#006994;}
	.st12{opacity:0.6;fill:url(#SVGID_00000164490769206740540920000009152698688094674845_);}
	.st13{opacity:0.8;fill:url(#SVGID_00000080927242077538651400000008633696549200297638_);}
	.st14{fill:url(#SVGID_00000049189403937255108370000002831267878397960067_);}
	.st15{fill:#F18972;}
	.st16{fill:#D1554B;}
	.st17{opacity:0.4;fill:#F18972;}
	.st18{opacity:0.6;fill:url(#SVGID_00000144312718736642069500000012380408760928813987_);}
	
		.st19{fill-rule:evenodd;clip-rule:evenodd;fill:none;stroke:#DA4C63;stroke-width:2;stroke-linecap:round;stroke-miterlimit:3.8636899;}
	.st20{fill:none;stroke:#DA4C63;stroke-width:2;stroke-linecap:round;stroke-miterlimit:3.8636899;}
	.st21{fill:#DA4C63;}
</style>
<g id="Ebene_2">
</g>
<g id="Ebene_3">
</g>
<g id="Ebene_1">
	<g>
		<polygon class="st0" points="65.5812683,209.6027985 106.2690811,279.8310852 159.2189789,265.3395386 116.0664139,200.0988464 		
			"/>
		<polygon class="st1" points="65.5812683,209.6027985 65.5812683,228.2745972 105.7117157,301.0110474 106.2690811,279.8310852 		
			"/>
		<polygon class="st2" points="159.2189789,285.6834412 159.2189789,265.3395386 106.2690811,279.8310852 105.7117157,301.0110474 
					"/>
		<line class="st3" x1="65.7985458" y1="209.9778137" x2="106.2690811" y2="279.8310852"/>
		<line class="st4" x1="158.7077637" y1="265.4794312" x2="106.2690811" y2="279.8310852"/>
		<polygon class="st5" points="79.0339966,209.7785187 117.20327,272.6552429 146.9225006,264.5307617 107.2225647,204.4055023 		
			"/>
		<polygon class="st1" points="107.2225647,204.4055023 107.2225647,214.4878235 141.0648346,266.1321106 146.9225006,264.5307617 
					"/>
		<polygon class="st2" points="107.2225647,204.4055023 79.0339966,209.7785187 84.6392975,219.012207 107.2225647,214.4878235 		
			"/>
		<polyline class="st6" points="146.9225006,264.5307617 107.2225647,204.4055023 79.0339966,209.7785187 		"/>
	</g>
	
		<linearGradient id="SVGID_1_" gradientUnits="userSpaceOnUse" x1="88.8513489" y1="212.4041595" x2="190.9143829" y2="110.3411255">
		<stop  offset="0" style="stop-color:#FFFFFF"/>
		<stop  offset="0.2962098" style="stop-color:#00B1EB"/>
		<stop  offset="0.5358952" style="stop-color:#F5FBFF"/>
		<stop  offset="1" style="stop-color:#9D9D9C"/>
	</linearGradient>
	<path class="st7" d="M146.8096466,264.7718201c-0.8166504-7.6785278-1.0805054-10.4323273-1.5865479-39.1422882
		c-0.6893311-39.1080933,2.0327148-73.0428925,16.4721069-100.3907776
		c6.6690979-12.6311188,14.5521698-24.0475235,14.9891815-24.7042618l-40.9329681-45.3563423
		c-0.4110107,0.6176147-7.593399,11.2386742-14.0445099,23.0218163
		c-14.7368774,26.9180908-16.0997086,52.3248291-16.0997086,86.0164185c0,21.8008423,0.6647186,43.5896301,1.432724,50.8111877
		l35.1598282,50.7249908"/>
	
		<linearGradient id="SVGID_00000098186200846203878570000013904690132013693856_" gradientUnits="userSpaceOnUse" x1="174.0390778" y1="189.959549" x2="127.8165588" y2="173.1359253">
		<stop  offset="0.2582135" style="stop-color:#BCE4FA"/>
		<stop  offset="0.6233844" style="stop-color:#F5FBFF"/>
		<stop  offset="0.8286529" style="stop-color:#72ACC8"/>
		<stop  offset="1" style="stop-color:#00B1EB"/>
	</linearGradient>
	<path style="opacity:0.8;fill:url(#SVGID_00000098186200846203878570000013904690132013693856_);" d="M164.7445526,93.6946182
		c-0.4370117,0.6567383-8.0478516,11.946312-15.0867157,24.3751678
		c-17.7711945,31.3794479-18.4610443,64.8316116-18.4610443,101.4067307c0,23.6182709,1.5550842,37.0479584,2.4862823,48.676651
		c4.1391602-1.1177368,9.3616791-2.3619995,13.1265717-3.3813477c-0.8675537-8.8425446-1.612854-19.8563385-1.612854-45.2953033
		c0-33.5478516,2.1646576-68.0585938,16.7413177-94.6840744c6.5654297-11.9916992,14.6427612-24.1021881,14.7462769-24.2579498
		L164.7445526,93.6946182z"/>
	
		<linearGradient id="SVGID_00000110456837622791256160000013183298541891819449_" gradientUnits="userSpaceOnUse" x1="133.9075317" y1="141.2094269" x2="89.4901886" y2="125.0428314">
		<stop  offset="0" style="stop-color:#FFFFFF"/>
		<stop  offset="0.2962098" style="stop-color:#B2B2B2"/>
		<stop  offset="0.5358952" style="stop-color:#F5FBFF"/>
		<stop  offset="0.747255" style="stop-color:#C6C6C6"/>
		<stop  offset="1" style="stop-color:#00B1EB"/>
	</linearGradient>
	<path style="fill:url(#SVGID_00000110456837622791256160000013183298541891819449_);" d="M124.158783,47.9972916
		c-0.4110031,0.6176491-6.7521362,11.2414284-13.352066,22.941864
		c-16.7668381,29.7244873-16.9935913,61.6797104-16.9935913,95.371315c0,27.0054321,1.0665359,43.415863,1.8345871,50.6373901
		c3.495903-0.6851959,8.9496765-1.3670959,11.3922119-1.9202881c-0.815918-8.3162537-1.3640289-28.669693-1.3640289-52.5946045
		c0-31.5511932,2.9711151-60.1304474,16.6802139-85.1712646c6.1746674-11.2779922,13.2979431-21.9370613,13.3953094-22.0835533
		L124.158783,47.9972916z"/>
	
		<linearGradient id="SVGID_00000135670201937269091130000014165254926686905732_" gradientUnits="userSpaceOnUse" x1="75.1575775" y1="211.8385773" x2="181.5788269" y2="105.4173355">
		<stop  offset="0" style="stop-color:#FFFFFF"/>
		<stop  offset="0.2962098" style="stop-color:#00B1EB"/>
		<stop  offset="0.5358952" style="stop-color:#F5FBFF"/>
		<stop  offset="1" style="stop-color:#00B1EB"/>
	</linearGradient>
	<path style="opacity:0.6;fill:url(#SVGID_00000135670201937269091130000014165254926686905732_);" d="M164.7445526,93.6946182
		L124.158783,47.9972916c-0.4110107,0.6176147-6.9009552,11.1587334-13.352066,22.9418716
		c-14.7368774,26.9180908-16.9935913,61.6796875-16.9935913,95.3712769c0,27.0054321,0.8924026,42.8675842,1.660408,50.0891418
		l36.4708633,52.2258148c0.9926758-0.2713623,1.738678-0.472229,1.738678-0.472229
		c-0.6040344-8.04422-2.4863434-23.7965546-2.4863434-48.676651c0-35.8237305,0.8838806-71.3850555,18.4610596-101.4067383
		C156.874649,105.7434311,164.3075409,94.3513565,164.7445526,93.6946182z"/>
	<polygon class="st11" points="135.8368835,55.2915459 124.158783,47.9972916 164.7445526,93.6946182 176.6843872,100.5344925 	"/>
	
		<linearGradient id="SVGID_00000164490000687996563340000007002408515298352778_" gradientUnits="userSpaceOnUse" x1="64.3712845" y1="219.6078186" x2="179.6122437" y2="104.3668442">
		<stop  offset="0" style="stop-color:#FFFFFF"/>
		<stop  offset="0.2962098" style="stop-color:#00B1EB"/>
		<stop  offset="0.5358952" style="stop-color:#F5FBFF"/>
		<stop  offset="1" style="stop-color:#9D9D9C"/>
	</linearGradient>
	<path style="opacity:0.6;fill:url(#SVGID_00000164490000687996563340000007002408515298352778_);" d="M162.3087158,92.3215637
		l-40.6560669-45.9143181c-0.4110107,0.6176147-10.1381836,15.2598877-16.5892944,27.0430336
		c-14.7368774,26.9180908-14.6669769,60.8102951-14.6669769,94.5018845c0,21.8008423,1.9638977,42.1377869,2.7319031,49.3593445
		l34.7809982,52.3982391l-10.575531,2.8605347l13.6998978-3.7056274
		c-0.8166504-7.6785278-1.9480591-19.2748413-2.4541016-47.9848022
		c-0.6893311-39.1081085,2.0327148-73.0429077,16.4721069-100.3907852
		C151.7207489,107.8579483,161.8717041,92.978302,162.3087158,92.3215637z"/>
	
		<linearGradient id="SVGID_00000119075287968674895270000013745096632703081375_" gradientUnits="userSpaceOnUse" x1="160.4006805" y1="188.1793823" x2="110.9502945" y2="170.1809082">
		<stop  offset="0.2582135" style="stop-color:#BCE4FA"/>
		<stop  offset="0.6267419" style="stop-color:#F5FBFF"/>
		<stop  offset="0.8726141" style="stop-color:#72ACC8"/>
		<stop  offset="1" style="stop-color:#00B1EB"/>
	</linearGradient>
	<path style="opacity:0.8;fill:url(#SVGID_00000119075287968674895270000013745096632703081375_);" d="M150.6534424,84.5657043
		c-0.4370117,0.6567383-10.7797852,16.2255859-17.6391602,28.7543945
		c-15.669426,28.621582-18.4610519,65.5830078-18.4610519,101.4067383c0,28.7144165,1.9638672,50.164917,2.7805176,57.8434448
		c4.1391602-1.1177368,9.9349976-2.6862793,13.6998978-3.7056274c-0.8675537-8.8425293-2.4804077-28.6988525-2.4804077-54.1378174
		c0-33.5478516,2.1646576-68.0585938,16.7413177-94.684082c6.5654297-11.9916992,16.9106445-27.5654297,17.0141602-27.7211914
		L150.6534424,84.5657043z"/>
	
		<linearGradient id="SVGID_00000093897980965841581060000011442087216085391504_" gradientUnits="userSpaceOnUse" x1="122.0198669" y1="137.9325256" x2="73.2544785" y2="120.1833801">
		<stop  offset="0" style="stop-color:#FFFFFF"/>
		<stop  offset="0.2962098" style="stop-color:#B2B2B2"/>
		<stop  offset="0.5358952" style="stop-color:#F5FBFF"/>
		<stop  offset="0.747255" style="stop-color:#C6C6C6"/>
		<stop  offset="1" style="stop-color:#00B1EB"/>
	</linearGradient>
	<path style="fill:url(#SVGID_00000093897980965841581060000011442087216085391504_);" d="M110.7524948,39.1464462
		c-0.4110031,0.6176529-10.1382065,15.2598915-16.5893326,27.0430222
		c-14.7368317,26.9181137-16.9935913,61.6797104-16.9935913,95.3713226c0,27.0054169,1.2173538,41.1954956,1.985405,48.4170227
		c0.6955185,1.1457367,5.4843216,9.0343933,5.4843216,9.0343933s6.3330307-1.1169739,8.4889832-1.7006989
		c-0.815918-8.3162537-2.7919464-31.8258057-2.7919464-55.7507172c0-31.5511932,1.6671219-64.0079575,15.3762207-89.0487823
		c6.174675-11.2779846,15.9041748-25.9248161,16.0015259-26.0713081L110.7524948,39.1464462z"/>
	<g>
		<path class="st15" d="M131.0336456,268.8646545c-0.0463867-0.4882812-4.495224-50.1241455-1.4586487-85.2580566
			c3.4382477-39.7813721,6.9555969-54.5272675,32.7337189-91.2850342l2.6826172,1.5144348
			c-19.5019836,29.6998138-28.4607391,41.5458069-31.6000214,88.5516968
			c-2.3259888,34.8282166,0.2463531,85.2801208,0.2917633,85.7654724L131.0336456,268.8646545z"/>
	</g>
	<polygon class="st16" points="121.7140808,46.4407005 124.158783,47.9972916 164.7445526,93.6946182 162.3087158,92.3215637 	"/>
	<path class="st17" d="M121.7140808,46.4407005c0,0-0.2031097,0.2558174-0.5774231,0.7463455
		c-3.7561493,4.9223099-20.8855057,23.7631187-27.3235321,62.7968788
		c-2.8313065,17.1662598-4.2258377,22.4886551-3.4693527,53.2180252c0.1912079,7.7670135,2.7845078,54.1095581,2.7845078,54.1095581
		l34.7809982,52.3982391l3.1243668-0.8450928c0,0-2.5185394-29.9960785-2.333313-58.0443726
		c0.2551575-38.635498,3.460022-54.3359833,9.7306519-73.6736908c5.8173981-17.940033,23.8777313-44.8250275,23.8777313-44.8250275"
		/>
	
		<linearGradient id="SVGID_00000169534416832341753650000007450082509611715469_" gradientUnits="userSpaceOnUse" x1="57.332428" y1="212.5690155" x2="170.7537231" y2="99.1477127">
		<stop  offset="0" style="stop-color:#FFFFFF"/>
		<stop  offset="0.2962098" style="stop-color:#00B1EB"/>
		<stop  offset="0.5358952" style="stop-color:#F5FBFF"/>
		<stop  offset="1" style="stop-color:#00B1EB"/>
	</linearGradient>
	<path style="opacity:0.6;fill:url(#SVGID_00000169534416832341753650000007450082509611715469_);" d="M150.6533966,84.5656967
		l-39.9009399-45.4192505c-0.4110107,0.6176147-10.1381836,15.2598877-16.5892944,27.0430298
		c-14.7368774,26.9180908-16.9935913,61.6796875-16.9935913,95.3712845c0,27.0054321,1.2173462,41.1954956,1.9853516,48.4170532
		l38.178772,62.5924683c-0.8166504-7.6785278-2.7805176-29.1290283-2.7805176-57.8434448
		c0-35.8237305,2.791626-72.7851562,18.4610596-101.4067459C139.8736115,100.7912827,150.2163849,85.222435,150.6533966,84.5656967z
		"/>
	<polygon class="st11" points="121.7140808,46.4407005 110.7524567,39.1464462 150.6533966,84.5656967 162.3087158,92.3215637 	"/>
	<line class="st19" x1="110.1498184" y1="42.6064873" x2="147.6417999" y2="85.2836304"/>
	<g>
		<g>
			<line class="st20" x1="77.1584396" y1="57.2117767" x2="98.9523926" y2="51.591301"/>
			<g>
				<polygon class="st21" points="97.4012756,55.8917427 110.1053238,48.7176743 95.5149612,48.5773582 				"/>
			</g>
		</g>
	</g>
	<g>
		<g>
			<line class="st20" x1="108.8807983" y1="94.0963669" x2="130.6747589" y2="88.4758911"/>
			<g>
				<polygon class="st21" points="129.123642,92.7763367 141.8276825,85.6022644 127.2373199,85.4619522 				"/>
			</g>
		</g>
	</g>
	<g>
		<g>
			<line class="st20" x1="92.4076767" y1="75.0338669" x2="114.2016296" y2="69.4133911"/>
			<g>
				<polygon class="st21" points="112.6505127,73.7138367 125.3545609,66.5397644 110.7641983,66.3994522 				"/>
			</g>
		</g>
	</g>
</g>
</svg>
