<?xml version="1.0" encoding="utf-8"?>
<!-- Generator: Adobe Illustrator 26.0.3, SVG Export Plug-In . SVG Version: 6.00 Build 0)  -->
<svg version="1.1" xmlns="http://www.w3.org/2000/svg" xmlns:xlink="http://www.w3.org/1999/xlink" x="0px" y="0px"
	 viewBox="0 0 226.7716522 340.1574707" style="enable-background:new 0 0 226.7716522 340.1574707;" xml:space="preserve">
<style type="text/css">
	.st0{fill-rule:evenodd;clip-rule:evenodd;fill:#9D9D9C;}
	.st1{fill-rule:evenodd;clip-rule:evenodd;fill:#3C3C3B;}
	.st2{fill-rule:evenodd;clip-rule:evenodd;fill:none;stroke:#706F6F;stroke-miterlimit:3.8636899;}
	
		.st3{fill-rule:evenodd;clip-rule:evenodd;fill:none;stroke:#DADADA;stroke-width:0.8;stroke-linecap:round;stroke-linejoin:round;stroke-miterlimit:3.8636899;}
	.st4{fill:#72ACC8;}
	.st5{opacity:0.8;fill:#F18972;}
	.st6{opacity:0.8;fill:url(#SVGID_1_);}
	.st7{fill:#F18972;}
	.st8{opacity:0.8;fill:url(#SVGID_00000052092405982995202180000015604482771695786402_);}
	.st9{fill:url(#SVGID_00000111186243921037301960000006253006210592666518_);}
	.st10{fill:url(#SVGID_00000067940641653371075010000015519908428255756181_);}
	.st11{fill:#F8BDAA;}
	.st12{opacity:0.65;fill:url(#SVGID_00000106848520225717058990000014439928135047808175_);}
	
		.st13{fill-rule:evenodd;clip-rule:evenodd;fill:none;stroke:#DA4C63;stroke-width:2;stroke-linecap:round;stroke-miterlimit:3.8636899;}
	.st14{fill:none;stroke:#DA4C63;stroke-width:2;stroke-linecap:round;stroke-miterlimit:3.8636899;}
	.st15{fill:#DA4C63;}
	.st16{fill:none;stroke:#FFFFFF;stroke-width:0.5;stroke-linecap:round;stroke-linejoin:round;stroke-miterlimit:3.8636899;}
</style>
<g id="Ebene_2">
</g>
<g id="Ebene_3">
</g>
<g id="Ebene_1">
	<g>
		<polygon class="st0" points="118.198288,56.4929237 166.2979736,110.8750153 147.1153564,127.7835312 101.3061371,71.6672287 		
			"/>
		<polygon class="st1" points="166.2979736,110.8750153 166.2979736,138.3740692 147.1153564,127.7835312 		"/>
		<line class="st2" x1="101.3061371" y1="71.6672287" x2="147.1153564" y2="127.5193863"/>
		<line class="st3" x1="166.2979736" y1="110.8750153" x2="147.1153564" y2="127.7835312"/>
	</g>
	<g>
		<polygon class="st0" points="125.716713,199.9767914 166.2979736,252.4672241 147.1153564,269.3757324 108.4202347,211.9401703 		
			"/>
		<polygon class="st1" points="166.2979736,252.4672241 166.2979736,279.9662781 147.1153564,269.3757324 		"/>
		<line class="st2" x1="108.4202347" y1="211.9401703" x2="147.1153564" y2="269.1116028"/>
		<line class="st3" x1="166.2979736" y1="252.4672241" x2="147.1153564" y2="269.3757324"/>
	</g>
	<polygon class="st4" points="137.071228,282.7485962 151.284729,283.6645508 112.6158524,225.1940155 100.1486893,224.3342133 	"/>
	<polygon class="st4" points="83.4384232,223.1765137 97.4384232,224.1766205 133.4020386,282.5147705 119.3133011,281.5637207 	"/>
	<path class="st5" d="M124.2137527,122.2876053L84.4154968,69.8192596
		c0.1928711,0.394043,20.5042114,46.5299377,20.5042114,82.8082581c0,35.7105103-6.6700668,68.7153625-7.4812851,71.5491028
		l35.8748703,58.3871918c0.8112183-2.8337402,11.6265259-41.3170624,11.6265259-77.0275726
		C144.9398193,169.2579193,124.4066238,122.6816483,124.2137527,122.2876053z"/>
	
		<linearGradient id="SVGID_1_" gradientUnits="userSpaceOnUse" x1="82.9183426" y1="245.1687622" x2="165.0066223" y2="163.0804749">
		<stop  offset="0.2582135" style="stop-color:#BCE4FA"/>
		<stop  offset="0.6233844" style="stop-color:#F5FBFF"/>
		<stop  offset="0.8286529" style="stop-color:#72ACC8"/>
		<stop  offset="1" style="stop-color:#00B1EB"/>
	</linearGradient>
	<path class="st6" d="M119.3133011,281.5637207l14.2758102,0.9199219
		c2.8338013-10.482666,11.350708-44.7518311,11.350708-77.9475098c0-39.5849609-19.8798752-80.5248947-20.7260666-82.2485275
		l-12.5678711,6.1679611c0.1928711,0.394043,19.2939377,39.8022461,19.2939377,76.0805664
		C130.9398193,240.2466431,120.1245193,278.7299805,119.3133011,281.5637207z"/>
	<path class="st7" d="M133.4020386,282.5147705l4.0563965,0.2614136
		c2.4445801-9.8953247,11.0707397-47.1571655,11.0707397-80.1399536c0-38.4257812-20.5820236-81.6572189-20.7900314-82.0898361
		l-3.6044922,1.7338867c0.2036133,0.4243164,20.3945236,42.8549728,20.3945236,80.3559494
		C144.5291748,236.0476685,135.5302734,274.006958,133.4020386,282.5147705z"/>
	
		<linearGradient id="SVGID_00000097469372835657876340000003004514140529179809_" gradientUnits="userSpaceOnUse" x1="97.9939499" y1="243.6713104" x2="183.7341766" y2="157.931076">
		<stop  offset="0.2582135" style="stop-color:#BCE4FA"/>
		<stop  offset="0.6233844" style="stop-color:#F5FBFF"/>
		<stop  offset="0.8286529" style="stop-color:#72ACC8"/>
		<stop  offset="1" style="stop-color:#00B1EB"/>
	</linearGradient>
	<path style="opacity:0.8;fill:url(#SVGID_00000097469372835657876340000003004514140529179809_);" d="M137.071228,282.7485962
		l14.213501,0.9159546c3.3796997-13.6711426,11.2000122-48.8827515,11.2000122-82.0014648
		c0-39.5175781-21.1220703-85.0825119-22.0214844-87.0029221l-12.6787033,5.9365234
		c0.2070312,0.4423828,20.7001877,44.63134,20.7001877,81.0663986
		C148.4847412,235.126709,139.7749634,272.0842285,137.071228,282.7485962z"/>
	
		<linearGradient id="SVGID_00000162336380832599591580000015447697330612023714_" gradientUnits="userSpaceOnUse" x1="88.9526443" y1="115.3536301" x2="107.5353165" y2="83.1674957">
		<stop  offset="0.194151" style="stop-color:#BCE4FA"/>
		<stop  offset="0.4677678" style="stop-color:#EAF6FE"/>
		<stop  offset="0.7444785" style="stop-color:#A1DAF8"/>
	</linearGradient>
	<polygon style="fill:url(#SVGID_00000162336380832599591580000015447697330612023714_);" points="72.6706009,75.6912918 
		111.6458817,128.4555664 124.1346512,122.2802811 84.4154968,69.8192596 	"/>
	
		<linearGradient id="SVGID_00000056403703398524005930000013196129374054216330_" gradientUnits="userSpaceOnUse" x1="104.8158264" y1="107.3356857" x2="122.9432755" y2="75.9380188">
		<stop  offset="0.194151" style="stop-color:#BCE4FA"/>
		<stop  offset="0.4677678" style="stop-color:#EAF6FE"/>
		<stop  offset="0.7444785" style="stop-color:#A1DAF8"/>
	</linearGradient>
	<polygon style="fill:url(#SVGID_00000056403703398524005930000013196129374054216330_);" points="87.4260101,68.3880692 
		99.6320114,62.4792557 140.4632568,114.6601639 127.7845535,120.5966873 	"/>
	<polygon class="st11" points="84.4154968,69.8192596 87.4260101,68.3880692 127.7845535,120.5966873 124.1346512,122.2802811 	"/>
	
		<linearGradient id="SVGID_00000178886002804911006860000015645370594423672461_" gradientUnits="userSpaceOnUse" x1="67.3015137" y1="195.2265778" x2="129.4724884" y2="159.3321533">
		<stop  offset="0" style="stop-color:#FFFFFF"/>
		<stop  offset="0.2962098" style="stop-color:#72ACC8"/>
		<stop  offset="0.5358952" style="stop-color:#F5FBFF"/>
		<stop  offset="1" style="stop-color:#00B1EB"/>
	</linearGradient>
	<path style="opacity:0.65;fill:url(#SVGID_00000178886002804911006860000015645370594423672461_);" d="M111.6458817,128.4555664
		L72.6706009,75.7605667c0.1928711,0.394043,19.2939453,39.8022461,19.2939453,76.0805588
		c0,35.7105103-7.7149048,68.5016479-8.526123,71.3353882l35.8748779,58.387207
		c0.8112183-2.8337402,11.6265182-41.3170776,11.6265182-77.0275879
		C130.9398193,168.2578125,111.8387527,128.8496094,111.6458817,128.4555664z"/>
	<line class="st13" x1="93.4478378" y1="155.3093567" x2="128.2928467" y2="199.1623535"/>
	<g>
		<g>
			<line class="st14" x1="60.4736824" y1="169.1904449" x2="82.2676392" y2="163.5699615"/>
			<g>
				<polygon class="st15" points="80.7165222,167.8704071 93.4205627,160.6963348 78.8302002,160.556015 				"/>
			</g>
		</g>
	</g>
	<g>
		<g>
			<line class="st14" x1="88.6268005" y1="205.4108429" x2="110.4207535" y2="199.7903595"/>
			<g>
				<polygon class="st15" points="108.8696365,204.0908051 121.5736771,196.9167328 106.9833221,196.7764282 				"/>
			</g>
		</g>
	</g>
	<g>
		<g>
			<line class="st14" x1="73.1757278" y1="186.7077484" x2="94.9696808" y2="181.0872803"/>
			<g>
				<polygon class="st15" points="93.4185638,185.3877258 106.1226044,178.2136536 91.5322418,178.0733337 				"/>
			</g>
		</g>
	</g>
	<line class="st16" x1="72.6706009" y1="75.6912918" x2="111.6458817" y2="128.4555664"/>
</g>
</svg>
