<?xml version="1.0" encoding="utf-8"?>
<!-- Generator: Adobe Illustrator 26.0.3, SVG Export Plug-In . SVG Version: 6.00 Build 0)  -->
<svg version="1.1" id="Ebene_1" xmlns="http://www.w3.org/2000/svg" xmlns:xlink="http://www.w3.org/1999/xlink" x="0px" y="0px"
	 viewBox="0 0 226.7716522 340.1574707" style="enable-background:new 0 0 226.7716522 340.1574707;" xml:space="preserve">
<style type="text/css">
	.st0{fill-rule:evenodd;clip-rule:evenodd;fill:#3C3C3B;}
	.st1{fill-rule:evenodd;clip-rule:evenodd;fill:#9D9D9C;}
	.st2{fill:none;stroke:#DADADA;stroke-width:0.8;stroke-linecap:round;stroke-linejoin:round;stroke-miterlimit:3.8636899;}
	.st3{fill:none;stroke:#DADADA;stroke-width:0.7758365;stroke-linecap:round;stroke-linejoin:round;stroke-miterlimit:3.8636899;}
	.st4{fill:none;stroke:#DADADA;stroke-width:0.7377061;stroke-linecap:round;stroke-linejoin:round;stroke-miterlimit:3.8636899;}
	.st5{fill:none;stroke:#DADADA;stroke-width:0.6835023;stroke-linecap:round;stroke-linejoin:round;stroke-miterlimit:3.8636899;}
	.st6{fill:#72ACC8;}
	.st7{fill:#F18972;}
	.st8{opacity:0.8;}
	.st9{fill:url(#SVGID_1_);}
	.st10{fill:url(#SVGID_00000008841703201099584720000001250215826651708820_);}
	.st11{fill:url(#SVGID_00000025445315059596116740000011675845455270051456_);}
	.st12{fill:url(#SVGID_00000110466331122674573480000005453724334351718022_);}
	.st13{fill:#F8BDAA;}
	.st14{opacity:0.7;fill:url(#SVGID_00000161619862145070329060000013828368043794160274_);}
	.st15{fill:none;stroke:#FFFFFF;stroke-width:0.5;stroke-linecap:round;stroke-linejoin:round;stroke-miterlimit:3.8636899;}
	
		.st16{fill-rule:evenodd;clip-rule:evenodd;fill:none;stroke:#DA4C63;stroke-width:2;stroke-linecap:round;stroke-miterlimit:3.8636899;}
	.st17{fill:none;stroke:#DA4C63;stroke-width:2;stroke-linecap:round;stroke-miterlimit:3.8636899;}
	.st18{fill:#DA4C63;}
</style>
<g>
	<polygon class="st0" points="172.3437347,134.3620148 154.3717804,125.7975464 172.3437347,117.233078 	"/>
	<path class="st1" d="M172.3437347,117.233078c-1.3518066-1.187149-8.0916138-8.8561401-8.0916138-8.8561401l-9.8803406,17.4206085
		L172.3437347,117.233078z"/>
	<line class="st2" x1="154.6545105" y1="125.6628113" x2="172.1114655" y2="117.3437653"/>
</g>
<g>
	<polygon class="st0" points="156.6996155,116.4482193 139.2704926,108.1424332 156.6996155,99.8366547 	"/>
	<path class="st1" d="M156.6996155,99.8366547c-1.3109741-1.1512985-7.8472137-8.5886459-7.8472137-8.5886459l-9.5819092,16.8944244
		L156.6996155,99.8366547z"/>
	<line class="st3" x1="139.5446777" y1="108.0117722" x2="156.4743652" y2="99.9439926"/>
</g>
<g>
	<polygon class="st0" points="141.8206787,99.2242737 125.2481537,91.3266983 141.8206787,83.4291306 	"/>
	<path class="st1" d="M141.8206787,83.4291306c-1.2465363-1.0947189-7.4615326-8.1665421-7.4615326-8.1665421l-9.1109924,16.0641098
		L141.8206787,83.4291306z"/>
	<line class="st4" x1="125.508873" y1="91.2024536" x2="141.6065063" y2="83.531189"/>
</g>
<g>
	<polygon class="st0" points="127.6974411,82.2078476 112.342598,74.8905563 127.6974411,67.5732651 	"/>
	<path class="st1" d="M127.6974411,67.5732651c-1.154953-1.0142746-6.9132996-7.5664902-6.9132996-7.5664902l-8.4415436,14.8837814
		L127.6974411,67.5732651z"/>
	<line class="st5" x1="112.5841522" y1="74.775444" x2="127.4990005" y2="67.6678314"/>
</g>
<g>
	<polygon class="st0" points="172.3437347,162.975174 154.3717804,154.4107056 172.3437347,145.8462372 	"/>
	<path class="st1" d="M172.3437347,145.8462372c-1.3518066-1.1871643-8.0916138-8.8561401-8.0916138-8.8561401
		l-9.8803406,17.4206085L172.3437347,145.8462372z"/>
	<line class="st2" x1="154.6545105" y1="154.2759705" x2="172.1114655" y2="145.9569244"/>
</g>
<g>
	<polygon class="st0" points="156.6996155,145.0613708 139.2704926,136.7555847 156.6996155,128.4498138 	"/>
	<path class="st1" d="M156.6996155,128.4498138c-1.3109741-1.1513062-7.8472137-8.5886536-7.8472137-8.5886536
		l-9.5819092,16.8944244L156.6996155,128.4498138z"/>
	<line class="st3" x1="139.5446777" y1="136.6249237" x2="156.4743652" y2="128.5571442"/>
</g>
<g>
	<polygon class="st0" points="141.8206787,127.8374252 125.2481537,119.9398575 141.8206787,112.0422821 	"/>
	<path class="st1" d="M141.8206787,112.0422821c-1.2465363-1.0947113-7.4615326-8.1665344-7.4615326-8.1665344
		l-9.1109924,16.0641098L141.8206787,112.0422821z"/>
	<line class="st4" x1="125.508873" y1="119.8156128" x2="141.6065063" y2="112.1443481"/>
</g>
<g>
	<polygon class="st0" points="127.6974411,110.8209991 112.342598,103.5037079 127.6974411,96.1864166 	"/>
	<path class="st1" d="M127.6974411,96.1864166c-1.154953-1.0142746-6.9132996-7.5664902-6.9132996-7.5664902l-8.4415436,14.8837814
		L127.6974411,96.1864166z"/>
	<line class="st5" x1="112.5841522" y1="103.3885956" x2="127.4990005" y2="96.280983"/>
</g>
<g>
	<polygon class="st0" points="172.3437347,191.5883179 154.3717804,183.0238495 172.3437347,174.4593811 	"/>
	<path class="st1" d="M172.3437347,174.4593811c-1.3518066-1.187149-8.0916138-8.8561401-8.0916138-8.8561401l-9.8803406,17.4206085
		L172.3437347,174.4593811z"/>
	<line class="st2" x1="154.6545105" y1="182.8891144" x2="172.1114655" y2="174.5700684"/>
</g>
<g>
	<polygon class="st0" points="156.6996155,173.67453 139.2704926,165.3687439 156.6996155,157.0629578 	"/>
	<path class="st1" d="M156.6996155,157.0629578c-1.3109741-1.1512909-7.8472137-8.5886383-7.8472137-8.5886383
		l-9.5819092,16.8944244L156.6996155,157.0629578z"/>
	<line class="st3" x1="139.5446777" y1="165.2380829" x2="156.4743652" y2="157.1703033"/>
</g>
<g>
	<polygon class="st0" points="141.8206787,156.4505768 125.2481537,148.553009 141.8206787,140.6554413 	"/>
	<path class="st1" d="M141.8206787,140.6554413c-1.2465363-1.0947266-7.4615326-8.1665497-7.4615326-8.1665497
		l-9.1109924,16.0641174L141.8206787,140.6554413z"/>
	<line class="st4" x1="125.508873" y1="148.4287567" x2="141.6065063" y2="140.7574921"/>
</g>
<g>
	<polygon class="st0" points="127.6974411,139.4341583 112.342598,132.1168671 127.6974411,124.7995758 	"/>
	<path class="st1" d="M127.6974411,124.7995758c-1.154953-1.0142822-6.9132996-7.5664978-6.9132996-7.5664978l-8.4415436,14.8837891
		L127.6974411,124.7995758z"/>
	<line class="st5" x1="112.5841522" y1="132.0017548" x2="127.4990005" y2="124.8941345"/>
</g>
<g>
	<polygon class="st0" points="172.3437347,220.2311707 154.3717804,211.6667023 172.3437347,203.1022339 	"/>
	<path class="st1" d="M172.3437347,203.1022339c-1.3518066-1.187149-8.0916138-8.8561401-8.0916138-8.8561401l-9.8803406,17.4206085
		L172.3437347,203.1022339z"/>
	<line class="st2" x1="154.6545105" y1="211.5319672" x2="172.1114655" y2="203.2129211"/>
</g>
<g>
	<polygon class="st0" points="156.6996155,202.3173828 139.2704926,194.0115967 156.6996155,185.7058105 	"/>
	<path class="st1" d="M156.6996155,185.7058105c-1.3109741-1.1512909-7.8472137-8.5886383-7.8472137-8.5886383
		l-9.5819092,16.8944244L156.6996155,185.7058105z"/>
	<line class="st3" x1="139.5446777" y1="193.8809357" x2="156.4743652" y2="185.8131561"/>
</g>
<g>
	<polygon class="st0" points="141.8206787,185.0934296 125.2481537,177.1958618 141.8206787,169.2982788 	"/>
	<path class="st1" d="M141.8206787,169.2982788c-1.2465363-1.0947113-7.4615326-8.1665344-7.4615326-8.1665344
		l-9.1109924,16.0641174L141.8206787,169.2982788z"/>
	<line class="st4" x1="125.508873" y1="177.0716095" x2="141.6065063" y2="169.4003448"/>
</g>
<g>
	<polygon class="st0" points="127.6974411,168.0770111 112.342598,160.7597198 127.6974411,153.4424286 	"/>
	<path class="st1" d="M127.6974411,153.4424286c-1.154953-1.0142822-6.9132996-7.5664978-6.9132996-7.5664978l-8.4415436,14.8837891
		L127.6974411,153.4424286z"/>
	<line class="st5" x1="112.5841522" y1="160.6446075" x2="127.4990005" y2="153.5369873"/>
</g>
<g>
	<polygon class="st0" points="172.3437347,247.9942932 154.3717804,239.4298248 172.3437347,230.8653564 	"/>
	<path class="st1" d="M172.3437347,230.8653564c-1.3518066-1.187149-8.0916138-8.8561401-8.0916138-8.8561401l-9.8803406,17.4206085
		L172.3437347,230.8653564z"/>
	<line class="st2" x1="154.6545105" y1="239.2950897" x2="172.1114655" y2="230.9760437"/>
</g>
<g>
	<polygon class="st0" points="156.6996155,230.0804901 139.2704926,221.7747192 156.6996155,213.4689331 	"/>
	<path class="st1" d="M156.6996155,213.4689331c-1.3109741-1.1512909-7.8472137-8.5886536-7.8472137-8.5886536
		l-9.5819092,16.8944397L156.6996155,213.4689331z"/>
	<line class="st3" x1="139.5446777" y1="221.644043" x2="156.4743652" y2="213.5762787"/>
</g>
<g>
	<polygon class="st0" points="141.8206787,212.8565521 125.2481537,204.9589844 141.8206787,197.0614014 	"/>
	<path class="st1" d="M141.8206787,197.0614014c-1.2465363-1.0947113-7.4615326-8.1665344-7.4615326-8.1665344
		l-9.1109924,16.0641174L141.8206787,197.0614014z"/>
	<line class="st4" x1="125.508873" y1="204.8347321" x2="141.6065063" y2="197.1634674"/>
</g>
<g>
	<polygon class="st0" points="127.6974411,195.8401337 112.342598,188.5228424 127.6974411,181.2055511 	"/>
	<path class="st1" d="M127.6974411,181.2055511c-1.154953-1.0142822-6.9132996-7.5664978-6.9132996-7.5664978l-8.4415436,14.8837891
		L127.6974411,181.2055511z"/>
	<line class="st5" x1="112.5841522" y1="188.4077148" x2="127.4990005" y2="181.3001099"/>
</g>
<g>
	<polygon class="st0" points="172.3437347,275.7574158 154.3717804,267.1929626 172.3437347,258.628479 	"/>
	<path class="st1" d="M172.3437347,258.628479c-1.3518066-1.1871643-8.0916138-8.8561401-8.0916138-8.8561401l-9.8803406,17.4206238
		L172.3437347,258.628479z"/>
	<line class="st2" x1="154.6545105" y1="267.0582275" x2="172.1114655" y2="258.7391663"/>
</g>
<g>
	<polygon class="st0" points="156.6996155,257.8436279 139.2704926,249.5378418 156.6996155,241.2320557 	"/>
	<path class="st1" d="M156.6996155,241.2320557c-1.3109741-1.1512909-7.8472137-8.5886536-7.8472137-8.5886536
		l-9.5819092,16.8944397L156.6996155,241.2320557z"/>
	<line class="st3" x1="139.5446777" y1="249.4071655" x2="156.4743652" y2="241.3394012"/>
</g>
<g>
	<polygon class="st0" points="141.8206787,240.6196747 125.2481537,232.7221069 141.8206787,224.8245239 	"/>
	<path class="st1" d="M141.8206787,224.8245239c-1.2465363-1.0947113-7.4615326-8.1665344-7.4615326-8.1665344
		l-9.1109924,16.0641174L141.8206787,224.8245239z"/>
	<line class="st4" x1="125.508873" y1="232.5978546" x2="141.6065063" y2="224.92659"/>
</g>
<g>
	<polygon class="st0" points="127.6974411,223.603241 112.342598,216.285965 127.6974411,208.9686737 	"/>
	<path class="st1" d="M127.6974411,208.9686737c-1.154953-1.0142822-6.9132996-7.5664978-6.9132996-7.5664978l-8.4415436,14.8837891
		L127.6974411,208.9686737z"/>
	<line class="st5" x1="112.5841522" y1="216.1708374" x2="127.4990005" y2="209.0632324"/>
</g>
<polygon class="st6" points="143.2384796,280.1506958 156.8317413,280.1506958 111.6033401,205.7384796 100.8457031,205.7384796 "/>
<polygon class="st6" points="139.2384796,280.1506958 97.581543,205.7384796 85.4089584,206.4662018 125.1310654,280.1506958 "/>
<polygon class="st7" points="139.2384796,280.1506958 139.2384796,116.93293 96.3687897,63.0507965 97.581543,205.7384796 "/>
<g class="st8">
	<linearGradient id="SVGID_1_" gradientUnits="userSpaceOnUse" x1="87.826622" y1="242.8462677" x2="176.4355011" y2="154.237381">
		<stop  offset="0.1327382" style="stop-color:#BCE4FA"/>
		<stop  offset="0.3484054" style="stop-color:#F5FBFF"/>
		<stop  offset="0.638545" style="stop-color:#72ACC8"/>
		<stop  offset="1" style="stop-color:#00B1EB"/>
	</linearGradient>
	<rect x="125.1310654" y="116.93293" class="st9" width="14" height="163.2177734"/>
</g>
<g class="st8">
	
		<linearGradient id="SVGID_00000039112910850069150930000015084503560654413211_" gradientUnits="userSpaceOnUse" x1="105.5273056" y1="242.8462677" x2="194.1361847" y2="154.237381">
		<stop  offset="0.0512246" style="stop-color:#BCE4FA"/>
		<stop  offset="0.1972865" style="stop-color:#F5FBFF"/>
		<stop  offset="0.5350397" style="stop-color:#72ACC8"/>
		<stop  offset="0.8648121" style="stop-color:#00B1EB"/>
	</linearGradient>
	
		<rect x="142.8317413" y="116.93293" style="fill:url(#SVGID_00000039112910850069150930000015084503560654413211_);" width="14" height="163.2177734"/>
</g>
<g>
	<rect x="139.2384796" y="116.93293" class="st7" width="4" height="163.2177734"/>
</g>
<linearGradient id="SVGID_00000159448071360960485390000017981710754304646809_" gradientUnits="userSpaceOnUse" x1="103.3194504" y1="104.3399887" x2="119.4605255" y2="76.3828201">
	<stop  offset="0.194151" style="stop-color:#BCE4FA"/>
	<stop  offset="0.4677678" style="stop-color:#EAF6FE"/>
	<stop  offset="0.7444785" style="stop-color:#A1DAF8"/>
</linearGradient>
<polygon style="fill:url(#SVGID_00000159448071360960485390000017981710754304646809_);" points="125.1310654,116.93293 
	83.9681931,63.0507965 96.3687897,63.0507965 139.2384796,116.93293 "/>
<linearGradient id="SVGID_00000044875464855894524520000001997971953107195306_" gradientUnits="userSpaceOnUse" x1="120.3869247" y1="103.7395782" x2="136.0606079" y2="76.5919495">
	<stop  offset="0.194151" style="stop-color:#BCE4FA"/>
	<stop  offset="0.4677678" style="stop-color:#EAF6FE"/>
	<stop  offset="0.7444785" style="stop-color:#A1DAF8"/>
</linearGradient>
<polygon style="fill:url(#SVGID_00000044875464855894524520000001997971953107195306_);" points="143.2384796,116.93293 
	99.8165817,63.0507965 112.6066437,63.0507965 156.8317413,116.93293 "/>
<polygon class="st13" points="96.3687897,63.0507965 99.8165817,63.0507965 143.2384796,116.93293 139.2384796,116.93293 "/>
<linearGradient id="SVGID_00000175308340044995854060000013860208568393493939_" gradientUnits="userSpaceOnUse" x1="72.9822006" y1="189.8262177" x2="143.6575623" y2="149.0217743">
	<stop  offset="0" style="stop-color:#FFFFFF"/>
	<stop  offset="0.2962098" style="stop-color:#72ACC8"/>
	<stop  offset="0.5358952" style="stop-color:#F5FBFF"/>
	<stop  offset="1" style="stop-color:#00B1EB"/>
</linearGradient>
<polygon style="opacity:0.7;fill:url(#SVGID_00000175308340044995854060000013860208568393493939_);" points="
	83.9681931,63.0507965 125.1310654,116.93293 125.1310654,280.1506958 85.4089584,206.4662018 "/>
<line class="st15" x1="83.9681931" y1="63.0507965" x2="125.1310654" y2="116.93293"/>
<line class="st16" x1="87.4020767" y1="136.990097" x2="122.2470932" y2="187.0972748"/>
<g>
	<g>
		<line class="st17" x1="54.4558334" y1="154.3647156" x2="76.2497864" y2="148.7442474"/>
		<g>
			<polygon class="st18" points="74.6986694,153.044693 87.4027176,145.8706207 72.812355,145.7303009 			"/>
		</g>
	</g>
</g>
<g>
	<g>
		<line class="st17" x1="81.5064926" y1="194.4388428" x2="103.3004456" y2="188.8183746"/>
		<g>
			<polygon class="st18" points="101.7493286,193.1188202 114.4533691,185.9447479 99.8630066,185.8044281 			"/>
		</g>
	</g>
</g>
<g>
	<g>
		<line class="st17" x1="68.1300659" y1="174.6426697" x2="89.9240189" y2="169.0221863"/>
		<g>
			<polygon class="st18" points="88.3729019,173.3226318 101.0769424,166.1485596 86.4865799,166.008255 			"/>
		</g>
	</g>
</g>
</svg>
