<?xml version="1.0" encoding="utf-8"?>
<!-- Generator: Adobe Illustrator 26.1.0, SVG Export Plug-In . SVG Version: 6.00 Build 0)  -->
<svg version="1.1" id="Ebene_1" xmlns="http://www.w3.org/2000/svg" xmlns:xlink="http://www.w3.org/1999/xlink" x="0px" y="0px"
	 viewBox="0 0 226.7716522 340.1574707" style="enable-background:new 0 0 226.7716522 340.1574707;" xml:space="preserve">
<style type="text/css">
	.st0{fill-rule:evenodd;clip-rule:evenodd;fill:#9D9D9C;}
	.st1{fill-rule:evenodd;clip-rule:evenodd;fill:#706F6F;}
	.st2{fill-rule:evenodd;clip-rule:evenodd;fill:#3C3C3B;}
	.st3{fill-rule:evenodd;clip-rule:evenodd;fill:none;stroke:#E9E9E9;stroke-linecap:round;stroke-miterlimit:3.8636899;}
	.st4{fill-rule:evenodd;clip-rule:evenodd;fill:none;stroke:#B2B2B2;stroke-linecap:round;stroke-miterlimit:3.8636899;}
	.st5{fill-rule:evenodd;clip-rule:evenodd;fill:#575756;}
	
		.st6{fill-rule:evenodd;clip-rule:evenodd;fill:none;stroke:#E9E9E9;stroke-width:0.5;stroke-linecap:round;stroke-linejoin:round;stroke-miterlimit:3.8636899;}
	.st7{opacity:0.6;fill:url(#SVGID_1_);}
	.st8{opacity:0.8;fill:url(#SVGID_00000112607277496262653750000012226618866576919735_);}
	.st9{fill:url(#SVGID_00000029006868682894096910000007422192784443143314_);}
	.st10{opacity:0.6;fill:url(#SVGID_00000013186694565155866910000004905751590487861688_);}
	.st11{fill:#006994;}
	.st12{opacity:0.6;fill:url(#SVGID_00000114753572657762168690000001448677259125791909_);}
	.st13{opacity:0.8;fill:url(#SVGID_00000059272455381119091020000006484589866045332876_);}
	.st14{fill:url(#SVGID_00000119106445809428521160000014415159027489514158_);}
	.st15{fill:#F18972;}
	.st16{fill:#D1554B;}
	.st17{opacity:0.4;fill:#F18972;}
	.st18{opacity:0.6;fill:url(#SVGID_00000024707535293860899520000004810826469331742594_);}
	.st19{fill:none;stroke:#419D64;stroke-width:1.5486932;stroke-linecap:round;stroke-miterlimit:3.8636899;}
	.st20{fill:#419D64;}
</style>
<g>
	<polygon class="st0" points="65.5812683,209.6027985 106.2690811,279.8310852 159.2189789,265.3395386 116.0664139,200.0988464 	
		"/>
	<polygon class="st1" points="65.5812683,209.6027985 65.5812683,228.2745972 105.7117157,301.0110474 106.2690811,279.8310852 	"/>
	<polygon class="st2" points="159.2189789,285.6834412 159.2189789,265.3395386 106.2690811,279.8310852 105.7117157,301.0110474 	
		"/>
	<line class="st3" x1="65.7985458" y1="209.9778137" x2="106.2690811" y2="279.8310852"/>
	<line class="st4" x1="158.7077637" y1="265.4794312" x2="106.2690811" y2="279.8310852"/>
	<polygon class="st5" points="79.0339966,209.7785187 117.20327,272.6552429 146.9225006,264.5307617 107.2225647,204.4055023 	"/>
	<polygon class="st1" points="107.2225647,204.4055023 107.2225647,214.4878235 141.0648346,266.1321106 146.9225006,264.5307617 	
		"/>
	<polygon class="st2" points="107.2225647,204.4055023 79.0339966,209.7785187 84.6392975,219.012207 107.2225647,214.4878235 	"/>
	<polyline class="st6" points="146.9225006,264.5307617 107.2225647,204.4055023 79.0339966,209.7785187 	"/>
</g>
<linearGradient id="SVGID_1_" gradientUnits="userSpaceOnUse" x1="88.8513489" y1="212.4041595" x2="190.9143829" y2="110.3411255">
	<stop  offset="0" style="stop-color:#FFFFFF"/>
	<stop  offset="0.2962098" style="stop-color:#00B1EB"/>
	<stop  offset="0.5358952" style="stop-color:#F5FBFF"/>
	<stop  offset="1" style="stop-color:#9D9D9C"/>
</linearGradient>
<path class="st7" d="M146.8096466,264.7718201c-0.8166504-7.6785278-1.0805054-10.4323273-1.5865479-39.1422882
	c-0.6893311-39.1080933,2.0327148-73.0428925,16.4721069-100.3907776
	c6.6690979-12.6311188,14.5521698-24.0475235,14.9891815-24.7042618l-40.9329681-45.3563423
	c-0.4110107,0.6176147-7.593399,11.2386742-14.0445099,23.0218163
	c-14.7368774,26.9180908-16.0997086,52.3248291-16.0997086,86.0164185c0,21.8008423,0.6647186,43.5896301,1.432724,50.8111877
	l35.1598282,50.7249908"/>
<linearGradient id="SVGID_00000131348771816490820930000017030727170717560739_" gradientUnits="userSpaceOnUse" x1="174.0390778" y1="189.959549" x2="127.8165588" y2="173.1359253">
	<stop  offset="0.2582135" style="stop-color:#BCE4FA"/>
	<stop  offset="0.6233844" style="stop-color:#F5FBFF"/>
	<stop  offset="0.8286529" style="stop-color:#72ACC8"/>
	<stop  offset="1" style="stop-color:#00B1EB"/>
</linearGradient>
<path style="opacity:0.8;fill:url(#SVGID_00000131348771816490820930000017030727170717560739_);" d="M164.7445526,93.6946182
	c-0.4370117,0.6567383-8.0478516,11.946312-15.0867157,24.3751678
	c-17.7711945,31.3794479-18.4610443,64.8316116-18.4610443,101.4067307c0,23.6182709,1.5550842,37.0479584,2.4862823,48.676651
	c4.1391602-1.1177368,9.3616791-2.3619995,13.1265717-3.3813477c-0.8675537-8.8425446-1.612854-19.8563385-1.612854-45.2953033
	c0-33.5478516,2.1646576-68.0585938,16.7413177-94.6840744c6.5654297-11.9916992,14.6427612-24.1021881,14.7462769-24.2579498
	L164.7445526,93.6946182z"/>
<linearGradient id="SVGID_00000125603573586716351040000005544327686121346200_" gradientUnits="userSpaceOnUse" x1="133.9075317" y1="141.2094269" x2="89.4901886" y2="125.0428314">
	<stop  offset="0" style="stop-color:#FFFFFF"/>
	<stop  offset="0.2962098" style="stop-color:#B2B2B2"/>
	<stop  offset="0.5358952" style="stop-color:#F5FBFF"/>
	<stop  offset="0.747255" style="stop-color:#C6C6C6"/>
	<stop  offset="1" style="stop-color:#00B1EB"/>
</linearGradient>
<path style="fill:url(#SVGID_00000125603573586716351040000005544327686121346200_);" d="M124.158783,47.9972916
	c-0.4110031,0.6176491-6.7521362,11.2414284-13.352066,22.941864
	c-16.7668381,29.7244873-16.9935913,61.6797104-16.9935913,95.371315c0,27.0054321,1.0665359,43.415863,1.8345871,50.6373901
	c3.495903-0.6851959,8.9496765-1.3670959,11.3922119-1.9202881c-0.815918-8.3162537-1.3640289-28.669693-1.3640289-52.5946045
	c0-31.5511932,2.9711151-60.1304474,16.6802139-85.1712646c6.1746674-11.2779922,13.2979431-21.9370613,13.3953094-22.0835533
	L124.158783,47.9972916z"/>
<linearGradient id="SVGID_00000119831459165716822880000015388377989042270911_" gradientUnits="userSpaceOnUse" x1="75.1575775" y1="211.8385773" x2="181.5788269" y2="105.4173355">
	<stop  offset="0" style="stop-color:#FFFFFF"/>
	<stop  offset="0.2962098" style="stop-color:#00B1EB"/>
	<stop  offset="0.5358952" style="stop-color:#F5FBFF"/>
	<stop  offset="1" style="stop-color:#00B1EB"/>
</linearGradient>
<path style="opacity:0.6;fill:url(#SVGID_00000119831459165716822880000015388377989042270911_);" d="M164.7445526,93.6946182
	L124.158783,47.9972916c-0.4110107,0.6176147-6.9009552,11.1587334-13.352066,22.9418716
	c-14.7368774,26.9180908-16.9935913,61.6796875-16.9935913,95.3712769c0,27.0054321,0.8924026,42.8675842,1.660408,50.0891418
	l36.4708633,52.2258148c0.9926758-0.2713623,1.738678-0.472229,1.738678-0.472229
	c-0.6040344-8.04422-2.4863434-23.7965546-2.4863434-48.676651c0-35.8237305,0.8838806-71.3850555,18.4610596-101.4067383
	C156.874649,105.7434311,164.3075409,94.3513565,164.7445526,93.6946182z"/>
<polygon class="st11" points="135.8368835,55.2915459 124.158783,47.9972916 164.7445526,93.6946182 176.6843872,100.5344925 "/>
<linearGradient id="SVGID_00000046317888617062308750000016810957694969779638_" gradientUnits="userSpaceOnUse" x1="64.3712845" y1="219.6078186" x2="179.6122437" y2="104.3668442">
	<stop  offset="0" style="stop-color:#FFFFFF"/>
	<stop  offset="0.2962098" style="stop-color:#00B1EB"/>
	<stop  offset="0.5358952" style="stop-color:#F5FBFF"/>
	<stop  offset="1" style="stop-color:#9D9D9C"/>
</linearGradient>
<path style="opacity:0.6;fill:url(#SVGID_00000046317888617062308750000016810957694969779638_);" d="M162.3087158,92.3215637
	l-40.6560669-45.9143181c-0.4110107,0.6176147-10.1381836,15.2598877-16.5892944,27.0430336
	c-14.7368774,26.9180908-14.6669769,60.8102951-14.6669769,94.5018845c0,21.8008423,1.9638977,42.1377869,2.7319031,49.3593445
	l34.7809982,52.3982391l-10.575531,2.8605347l13.6998978-3.7056274c-0.8166504-7.6785278-1.9480591-19.2748413-2.4541016-47.9848022
	c-0.6893311-39.1081085,2.0327148-73.0429077,16.4721069-100.3907852
	C151.7207489,107.8579483,161.8717041,92.978302,162.3087158,92.3215637z"/>
<linearGradient id="SVGID_00000169534659113826728610000015957115079212559489_" gradientUnits="userSpaceOnUse" x1="160.4006805" y1="188.1793823" x2="110.9502945" y2="170.1809082">
	<stop  offset="0.2582135" style="stop-color:#BCE4FA"/>
	<stop  offset="0.6267419" style="stop-color:#F5FBFF"/>
	<stop  offset="0.8726141" style="stop-color:#72ACC8"/>
	<stop  offset="1" style="stop-color:#00B1EB"/>
</linearGradient>
<path style="opacity:0.8;fill:url(#SVGID_00000169534659113826728610000015957115079212559489_);" d="M150.6534424,84.5657043
	c-0.4370117,0.6567383-10.7797852,16.2255859-17.6391602,28.7543945
	c-15.669426,28.621582-18.4610519,65.5830078-18.4610519,101.4067383c0,28.7144165,1.9638672,50.164917,2.7805176,57.8434448
	c4.1391602-1.1177368,9.9349976-2.6862793,13.6998978-3.7056274c-0.8675537-8.8425293-2.4804077-28.6988525-2.4804077-54.1378174
	c0-33.5478516,2.1646576-68.0585938,16.7413177-94.684082c6.5654297-11.9916992,16.9106445-27.5654297,17.0141602-27.7211914
	L150.6534424,84.5657043z"/>
<linearGradient id="SVGID_00000007417538912466860040000016768002697503411337_" gradientUnits="userSpaceOnUse" x1="122.0198669" y1="137.9325256" x2="73.2544785" y2="120.1833801">
	<stop  offset="0" style="stop-color:#FFFFFF"/>
	<stop  offset="0.2962098" style="stop-color:#B2B2B2"/>
	<stop  offset="0.5358952" style="stop-color:#F5FBFF"/>
	<stop  offset="0.747255" style="stop-color:#C6C6C6"/>
	<stop  offset="1" style="stop-color:#00B1EB"/>
</linearGradient>
<path style="fill:url(#SVGID_00000007417538912466860040000016768002697503411337_);" d="M110.7524948,39.1464462
	c-0.4110031,0.6176529-10.1382065,15.2598915-16.5893326,27.0430222
	c-14.7368317,26.9181137-16.9935913,61.6797104-16.9935913,95.3713226c0,27.0054169,1.2173538,41.1954956,1.985405,48.4170227
	c0.6955185,1.1457367,5.4843216,9.0343933,5.4843216,9.0343933s6.3330307-1.1169739,8.4889832-1.7006989
	c-0.815918-8.3162537-2.7919464-31.8258057-2.7919464-55.7507172c0-31.5511932,1.6671219-64.0079575,15.3762207-89.0487823
	c6.174675-11.2779846,15.9041748-25.9248161,16.0015259-26.0713081L110.7524948,39.1464462z"/>
<g>
	<path class="st15" d="M131.0336456,268.8646545c-0.0463867-0.4882812-4.495224-50.1241455-1.4586487-85.2580566
		c3.4382477-39.7813721,6.9555969-54.5272675,32.7337189-91.2850342l2.6826172,1.5144348
		c-19.5019836,29.6998138-28.4607391,41.5458069-31.6000214,88.5516968
		c-2.3259888,34.8282166,0.2463531,85.2801208,0.2917633,85.7654724L131.0336456,268.8646545z"/>
</g>
<polygon class="st16" points="121.7140808,46.4407005 124.158783,47.9972916 164.7445526,93.6946182 162.3087158,92.3215637 "/>
<path class="st17" d="M121.7140808,46.4407005c0,0-0.2031097,0.2558174-0.5774231,0.7463455
	c-3.7561493,4.9223099-20.8855057,23.7631187-27.3235321,62.7968788
	c-2.8313065,17.1662598-4.2258377,22.4886551-3.4693527,53.2180252c0.1912079,7.7670135,2.7845078,54.1095581,2.7845078,54.1095581
	l34.7809982,52.3982391l3.1243668-0.8450928c0,0-2.5185394-29.9960785-2.333313-58.0443726
	c0.2551575-38.635498,3.460022-54.3359833,9.7306519-73.6736908c5.8173981-17.940033,23.8777313-44.8250275,23.8777313-44.8250275"
	/>
<linearGradient id="SVGID_00000088135267985812396430000011194489235229749693_" gradientUnits="userSpaceOnUse" x1="57.332428" y1="212.5690155" x2="170.7537231" y2="99.1477127">
	<stop  offset="0" style="stop-color:#FFFFFF"/>
	<stop  offset="0.2962098" style="stop-color:#00B1EB"/>
	<stop  offset="0.5358952" style="stop-color:#F5FBFF"/>
	<stop  offset="1" style="stop-color:#00B1EB"/>
</linearGradient>
<path style="opacity:0.6;fill:url(#SVGID_00000088135267985812396430000011194489235229749693_);" d="M150.6533966,84.5656967
	l-39.9009399-45.4192505c-0.4110107,0.6176147-10.1381836,15.2598877-16.5892944,27.0430298
	c-14.7368774,26.9180908-16.9935913,61.6796875-16.9935913,95.3712845c0,27.0054321,1.2173462,41.1954956,1.9853516,48.4170532
	l38.178772,62.5924683c-0.8166504-7.6785278-2.7805176-29.1290283-2.7805176-57.8434448
	c0-35.8237305,2.791626-72.7851562,18.4610596-101.4067459C139.8736115,100.7912827,150.2163849,85.222435,150.6533966,84.5656967z"
	/>
<polygon class="st11" points="121.7140808,46.4407005 110.7524567,39.1464462 150.6533966,84.5656967 162.3087158,92.3215637 "/>
<g>
	<g>
		<line class="st19" x1="73.2779083" y1="75.5386124" x2="90.1539841" y2="71.1864166"/>
		<g>
			<polygon class="st20" points="88.9528809,74.516449 98.7902145,68.961235 87.492218,68.8525848 			"/>
		</g>
	</g>
</g>
<g>
	<g>
		<line class="st19" x1="64.4136734" y1="100.2739029" x2="81.2897415" y2="95.9217072"/>
		<g>
			<polygon class="st20" points="80.0886383,99.2517395 89.925972,93.6965256 78.6279755,93.5878677 			"/>
		</g>
	</g>
</g>
<g>
	<g>
		<line class="st19" x1="60.4133682" y1="123.7792511" x2="77.2894363" y2="119.4270554"/>
		<g>
			<polygon class="st20" points="76.0883408,122.7570877 85.9256668,117.2018738 74.6276703,117.0932236 			"/>
		</g>
	</g>
</g>
<g>
	<g>
		<line class="st19" x1="58.1940308" y1="145.3143463" x2="75.0700989" y2="140.9621582"/>
		<g>
			<polygon class="st20" points="73.8690033,144.2921906 83.7063293,138.736969 72.4083328,138.6283264 			"/>
		</g>
	</g>
</g>
<g>
	<g>
		<line class="st19" x1="57.1939278" y1="166.9291534" x2="74.0699997" y2="162.5769501"/>
		<g>
			<polygon class="st20" points="72.8688965,165.9069977 82.7062302,160.3517761 71.4082336,160.2431183 			"/>
		</g>
	</g>
</g>
<g>
	<g>
		<line class="st19" x1="57.1939316" y1="186.8549652" x2="74.0699997" y2="182.5027771"/>
		<g>
			<polygon class="st20" points="72.8689041,185.8328094 82.7062302,180.2775879 71.4082336,180.1689453 			"/>
		</g>
	</g>
</g>
<g>
	<g>
		<line class="st19" x1="57.1939316" y1="206.780777" x2="74.0699997" y2="202.4285736"/>
		<g>
			<polygon class="st20" points="72.8689041,205.7586212 82.7062302,200.2033997 71.4082336,200.0947418 			"/>
		</g>
	</g>
</g>
<g>
	<g>
		<line class="st19" x1="85.1098862" y1="52.9865303" x2="101.9859619" y2="48.6343307"/>
		<g>
			<polygon class="st20" points="100.7848587,51.9643669 110.6221924,46.4091492 99.3241959,46.300499 			"/>
		</g>
	</g>
</g>
<g>
	<g>
		<line class="st19" x1="104.6070938" y1="116.2437363" x2="121.4831696" y2="111.8915329"/>
		<g>
			<polygon class="st20" points="120.2820663,115.2215729 130.1194,109.6663513 118.8214035,109.5577011 			"/>
		</g>
	</g>
</g>
<g>
	<g>
		<line class="st19" x1="95.4667587" y1="139.0518646" x2="112.3428268" y2="134.6996613"/>
		<g>
			<polygon class="st20" points="111.1417236,138.0296936 120.9790573,132.4744873 109.6810608,132.3658295 			"/>
		</g>
	</g>
</g>
<g>
	<g>
		<line class="st19" x1="89.3997726" y1="161.3648682" x2="106.2758408" y2="157.0126648"/>
		<g>
			<polygon class="st20" points="105.0747452,160.3426971 114.9120712,154.7874908 103.6140747,154.678833 			"/>
		</g>
	</g>
</g>
<g>
	<g>
		<line class="st19" x1="86.8736801" y1="184.2135315" x2="103.7497482" y2="179.8613281"/>
		<g>
			<polygon class="st20" points="102.5486526,183.1913757 112.3859787,177.6361542 101.0879822,177.5274963 			"/>
		</g>
	</g>
</g>
<g>
	<g>
		<line class="st19" x1="84.8317032" y1="206.780777" x2="101.7077713" y2="202.4285736"/>
		<g>
			<polygon class="st20" points="100.5066681,205.7586212 110.3440018,200.2033997 99.0460052,200.0947418 			"/>
		</g>
	</g>
</g>
<g>
	<g>
		<line class="st19" x1="84.8317032" y1="229.6695862" x2="101.7077713" y2="225.3173981"/>
		<g>
			<polygon class="st20" points="100.5066757,228.6474304 110.3440018,223.0922089 99.0460052,222.9835663 			"/>
		</g>
	</g>
</g>
<g>
	<g>
		<line class="st19" x1="86.1862869" y1="251.8849487" x2="103.062355" y2="247.5327454"/>
		<g>
			<polygon class="st20" points="101.8612595,250.862793 111.6985855,245.3075714 100.400589,245.1989136 			"/>
		</g>
	</g>
</g>
<g>
	<g>
		<line class="st19" x1="118.4408798" y1="93.6946182" x2="135.3169556" y2="89.3424225"/>
		<g>
			<polygon class="st20" points="134.1158447,92.6724548 143.953186,87.1172409 132.6551819,87.0085907 			"/>
		</g>
	</g>
</g>
<g>
	<g>
		<line class="st19" x1="88.8707886" y1="96.65271" x2="105.7468643" y2="92.3005142"/>
		<g>
			<polygon class="st20" points="104.5457611,95.6305466 114.3830948,90.0753326 103.0850983,89.9666824 			"/>
		</g>
	</g>
</g>
<g>
	<g>
		<line class="st19" x1="81.5035629" y1="120.4897995" x2="98.379631" y2="116.1376038"/>
		<g>
			<polygon class="st20" points="97.1785278,119.4676361 107.0158615,113.9124222 95.717865,113.8037643 			"/>
		</g>
	</g>
</g>
<g>
	<g>
		<line class="st19" x1="75.1080475" y1="142.4981384" x2="91.9841156" y2="138.1459503"/>
		<g>
			<polygon class="st20" points="90.78302,141.4759827 100.6203461,135.9207611 89.3223495,135.8121185 			"/>
		</g>
	</g>
</g>
<g>
	<g>
		<line class="st19" x1="73.7869186" y1="163.1350403" x2="90.6629868" y2="158.7828369"/>
		<g>
			<polygon class="st20" points="89.4618912,162.1128845 99.2992172,156.557663 88.0012207,156.4490051 			"/>
		</g>
	</g>
</g>
<g>
	<g>
		<line class="st19" x1="71.5892105" y1="186.2468567" x2="88.4652786" y2="181.8946533"/>
		<g>
			<polygon class="st20" points="87.2641754,185.2247009 97.1015091,179.6694794 85.8035126,179.5608215 			"/>
		</g>
	</g>
</g>
<g>
	<g>
		<line class="st19" x1="73.0862198" y1="206.7714691" x2="89.9622879" y2="202.419281"/>
		<g>
			<polygon class="st20" points="88.7611923,205.7493134 98.5985184,200.1940918 87.3005219,200.0854492 			"/>
		</g>
	</g>
</g>
<g>
	<g>
		<line class="st19" x1="71.5892105" y1="229.0924835" x2="88.4652786" y2="224.7402802"/>
		<g>
			<polygon class="st20" points="87.264183,228.0703278 97.1015091,222.5151062 85.8035126,222.4064484 			"/>
		</g>
	</g>
</g>
<g>
	<g>
		<line class="st19" x1="101.0021744" y1="72.9030304" x2="117.8782501" y2="68.550827"/>
		<g>
			<polygon class="st20" points="116.6771469,71.880867 126.5144806,66.3256454 115.2164841,66.2169952 			"/>
		</g>
	</g>
</g>
</svg>
