<?xml version="1.0" encoding="utf-8"?>
<!-- Generator: Adobe Illustrator 26.1.0, SVG Export Plug-In . SVG Version: 6.00 Build 0)  -->
<svg version="1.1" id="Ebene_1" xmlns="http://www.w3.org/2000/svg" xmlns:xlink="http://www.w3.org/1999/xlink" x="0px" y="0px"
	 viewBox="0 0 226.7716522 340.1574707" style="enable-background:new 0 0 226.7716522 340.1574707;" xml:space="preserve">
<style type="text/css">
	.st0{fill-rule:evenodd;clip-rule:evenodd;fill:#9D9D9C;}
	.st1{fill-rule:evenodd;clip-rule:evenodd;fill:#706F6F;}
	.st2{fill-rule:evenodd;clip-rule:evenodd;fill:#3C3C3B;}
	.st3{fill-rule:evenodd;clip-rule:evenodd;fill:none;stroke:#E9E9E9;stroke-linecap:round;stroke-miterlimit:3.8636899;}
	.st4{fill-rule:evenodd;clip-rule:evenodd;fill:none;stroke:#B2B2B2;stroke-linecap:round;stroke-miterlimit:3.8636899;}
	.st5{fill-rule:evenodd;clip-rule:evenodd;fill:#575756;}
	
		.st6{fill-rule:evenodd;clip-rule:evenodd;fill:none;stroke:#E9E9E9;stroke-width:0.5;stroke-linecap:round;stroke-linejoin:round;stroke-miterlimit:3.8636899;}
	.st7{opacity:0.6;fill:url(#SVGID_1_);}
	.st8{opacity:0.8;fill:url(#SVGID_00000168828682087687839840000002617716855737218187_);}
	.st9{fill:url(#SVGID_00000163063566789635549450000014151782787769094053_);}
	.st10{opacity:0.6;fill:url(#SVGID_00000134239040650969874250000001840387482705278336_);}
	.st11{fill:#006994;}
	.st12{opacity:0.6;fill:url(#SVGID_00000090292800987459598990000001370725309786129314_);}
	.st13{opacity:0.8;fill:url(#SVGID_00000140701329459920026680000015975430636613566360_);}
	.st14{fill:url(#SVGID_00000042714780015995406410000015717894251928412605_);}
	.st15{fill:#F18972;}
	.st16{fill:#D1554B;}
	.st17{opacity:0.4;fill:#F18972;}
	.st18{opacity:0.6;fill:url(#SVGID_00000020373070560318053960000007846570167907080876_);}
	
		.st19{fill-rule:evenodd;clip-rule:evenodd;fill:none;stroke:#DA4C63;stroke-width:2;stroke-linecap:round;stroke-miterlimit:3.8636899;}
	.st20{fill:none;stroke:#DA4C63;stroke-width:2;stroke-linecap:round;stroke-miterlimit:3.8636899;}
	.st21{fill:#DA4C63;}
	.st22{fill:none;stroke:#419D64;stroke-width:1.5486932;stroke-linecap:round;stroke-miterlimit:3.8636899;}
	.st23{fill:#419D64;}
</style>
<g>
	<polygon class="st0" points="65.5812683,209.6027985 106.2690811,279.8310852 159.2189789,265.3395386 116.0664139,200.0988464 	
		"/>
	<polygon class="st1" points="65.5812683,209.6027985 65.5812683,228.2745972 105.7117157,301.0110474 106.2690811,279.8310852 	"/>
	<polygon class="st2" points="159.2189789,285.6834412 159.2189789,265.3395386 106.2690811,279.8310852 105.7117157,301.0110474 	
		"/>
	<line class="st3" x1="65.7985458" y1="209.9778137" x2="106.2690811" y2="279.8310852"/>
	<line class="st4" x1="158.7077637" y1="265.4794312" x2="106.2690811" y2="279.8310852"/>
	<polygon class="st5" points="79.0339966,209.7785187 117.20327,272.6552429 146.9225006,264.5307617 107.2225647,204.4055023 	"/>
	<polygon class="st1" points="107.2225647,204.4055023 107.2225647,214.4878235 141.0648346,266.1321106 146.9225006,264.5307617 	
		"/>
	<polygon class="st2" points="107.2225647,204.4055023 79.0339966,209.7785187 84.6392975,219.012207 107.2225647,214.4878235 	"/>
	<polyline class="st6" points="146.9225006,264.5307617 107.2225647,204.4055023 79.0339966,209.7785187 	"/>
</g>
<linearGradient id="SVGID_1_" gradientUnits="userSpaceOnUse" x1="88.8513489" y1="212.4041595" x2="190.9143829" y2="110.3411255">
	<stop  offset="0" style="stop-color:#FFFFFF"/>
	<stop  offset="0.2962098" style="stop-color:#00B1EB"/>
	<stop  offset="0.5358952" style="stop-color:#F5FBFF"/>
	<stop  offset="1" style="stop-color:#9D9D9C"/>
</linearGradient>
<path class="st7" d="M146.8096466,264.7718201c-0.8166504-7.6785278-1.0805054-10.4323273-1.5865479-39.1422882
	c-0.6893311-39.1080933,2.0327148-73.0428925,16.4721069-100.3907776
	c6.6690979-12.6311188,14.5521698-24.0475235,14.9891815-24.7042618l-40.9329681-45.3563423
	c-0.4110107,0.6176147-7.593399,11.2386742-14.0445099,23.0218163
	c-14.7368774,26.9180908-16.0997086,52.3248291-16.0997086,86.0164185c0,21.8008423,0.6647186,43.5896301,1.432724,50.8111877
	l35.1598282,50.7249908"/>
<linearGradient id="SVGID_00000134213383342952004330000007561939154359168151_" gradientUnits="userSpaceOnUse" x1="174.0390778" y1="189.959549" x2="127.8165588" y2="173.1359253">
	<stop  offset="0.2582135" style="stop-color:#BCE4FA"/>
	<stop  offset="0.6233844" style="stop-color:#F5FBFF"/>
	<stop  offset="0.8286529" style="stop-color:#72ACC8"/>
	<stop  offset="1" style="stop-color:#00B1EB"/>
</linearGradient>
<path style="opacity:0.8;fill:url(#SVGID_00000134213383342952004330000007561939154359168151_);" d="M164.7445526,93.6946182
	c-0.4370117,0.6567383-8.0478516,11.946312-15.0867157,24.3751678
	c-17.7711945,31.3794479-18.4610443,64.8316116-18.4610443,101.4067307c0,23.6182709,1.5550842,37.0479584,2.4862823,48.676651
	c4.1391602-1.1177368,9.3616791-2.3619995,13.1265717-3.3813477c-0.8675537-8.8425446-1.612854-19.8563385-1.612854-45.2953033
	c0-33.5478516,2.1646576-68.0585938,16.7413177-94.6840744c6.5654297-11.9916992,14.6427612-24.1021881,14.7462769-24.2579498
	L164.7445526,93.6946182z"/>
<linearGradient id="SVGID_00000156564766046235012360000003823362283079752850_" gradientUnits="userSpaceOnUse" x1="133.9075317" y1="141.2094269" x2="89.4901886" y2="125.0428314">
	<stop  offset="0" style="stop-color:#FFFFFF"/>
	<stop  offset="0.2962098" style="stop-color:#B2B2B2"/>
	<stop  offset="0.5358952" style="stop-color:#F5FBFF"/>
	<stop  offset="0.747255" style="stop-color:#C6C6C6"/>
	<stop  offset="1" style="stop-color:#00B1EB"/>
</linearGradient>
<path style="fill:url(#SVGID_00000156564766046235012360000003823362283079752850_);" d="M124.158783,47.9972916
	c-0.4110031,0.6176491-6.7521362,11.2414284-13.352066,22.941864
	c-16.7668381,29.7244873-16.9935913,61.6797104-16.9935913,95.371315c0,27.0054321,1.0665359,43.415863,1.8345871,50.6373901
	c3.495903-0.6851959,8.9496765-1.3670959,11.3922119-1.9202881c-0.815918-8.3162537-1.3640289-28.669693-1.3640289-52.5946045
	c0-31.5511932,2.9711151-60.1304474,16.6802139-85.1712646c6.1746674-11.2779922,13.2979431-21.9370613,13.3953094-22.0835533
	L124.158783,47.9972916z"/>
<linearGradient id="SVGID_00000103238102547789181550000016988178042122878115_" gradientUnits="userSpaceOnUse" x1="75.1575775" y1="211.8385773" x2="181.5788269" y2="105.4173355">
	<stop  offset="0" style="stop-color:#FFFFFF"/>
	<stop  offset="0.2962098" style="stop-color:#00B1EB"/>
	<stop  offset="0.5358952" style="stop-color:#F5FBFF"/>
	<stop  offset="1" style="stop-color:#00B1EB"/>
</linearGradient>
<path style="opacity:0.6;fill:url(#SVGID_00000103238102547789181550000016988178042122878115_);" d="M164.7445526,93.6946182
	L124.158783,47.9972916c-0.4110107,0.6176147-6.9009552,11.1587334-13.352066,22.9418716
	c-14.7368774,26.9180908-16.9935913,61.6796875-16.9935913,95.3712769c0,27.0054321,0.8924026,42.8675842,1.660408,50.0891418
	l36.4708633,52.2258148c0.9926758-0.2713623,1.738678-0.472229,1.738678-0.472229
	c-0.6040344-8.04422-2.4863434-23.7965546-2.4863434-48.676651c0-35.8237305,0.8838806-71.3850555,18.4610596-101.4067383
	C156.874649,105.7434311,164.3075409,94.3513565,164.7445526,93.6946182z"/>
<polygon class="st11" points="135.8368835,55.2915459 124.158783,47.9972916 164.7445526,93.6946182 176.6843872,100.5344925 "/>
<linearGradient id="SVGID_00000011743654915519118790000012819203484204092041_" gradientUnits="userSpaceOnUse" x1="64.3712845" y1="219.6078186" x2="179.6122437" y2="104.3668442">
	<stop  offset="0" style="stop-color:#FFFFFF"/>
	<stop  offset="0.2962098" style="stop-color:#00B1EB"/>
	<stop  offset="0.5358952" style="stop-color:#F5FBFF"/>
	<stop  offset="1" style="stop-color:#9D9D9C"/>
</linearGradient>
<path style="opacity:0.6;fill:url(#SVGID_00000011743654915519118790000012819203484204092041_);" d="M162.3087158,92.3215637
	l-40.6560669-45.9143181c-0.4110107,0.6176147-10.1381836,15.2598877-16.5892944,27.0430336
	c-14.7368774,26.9180908-14.6669769,60.8102951-14.6669769,94.5018845c0,21.8008423,1.9638977,42.1377869,2.7319031,49.3593445
	l34.7809982,52.3982391l-10.575531,2.8605347l13.6998978-3.7056274c-0.8166504-7.6785278-1.9480591-19.2748413-2.4541016-47.9848022
	c-0.6893311-39.1081085,2.0327148-73.0429077,16.4721069-100.3907852
	C151.7207489,107.8579483,161.8717041,92.978302,162.3087158,92.3215637z"/>
<linearGradient id="SVGID_00000068679340046618307630000013026346058186903168_" gradientUnits="userSpaceOnUse" x1="160.4006805" y1="188.1793823" x2="110.9502945" y2="170.1809082">
	<stop  offset="0.2582135" style="stop-color:#BCE4FA"/>
	<stop  offset="0.6267419" style="stop-color:#F5FBFF"/>
	<stop  offset="0.8726141" style="stop-color:#72ACC8"/>
	<stop  offset="1" style="stop-color:#00B1EB"/>
</linearGradient>
<path style="opacity:0.8;fill:url(#SVGID_00000068679340046618307630000013026346058186903168_);" d="M150.6534424,84.5657043
	c-0.4370117,0.6567383-10.7797852,16.2255859-17.6391602,28.7543945
	c-15.669426,28.621582-18.4610519,65.5830078-18.4610519,101.4067383c0,28.7144165,1.9638672,50.164917,2.7805176,57.8434448
	c4.1391602-1.1177368,9.9349976-2.6862793,13.6998978-3.7056274c-0.8675537-8.8425293-2.4804077-28.6988525-2.4804077-54.1378174
	c0-33.5478516,2.1646576-68.0585938,16.7413177-94.684082c6.5654297-11.9916992,16.9106445-27.5654297,17.0141602-27.7211914
	L150.6534424,84.5657043z"/>
<linearGradient id="SVGID_00000085246161219396627040000000105475400305511582_" gradientUnits="userSpaceOnUse" x1="122.0198669" y1="137.9325256" x2="73.2544785" y2="120.1833801">
	<stop  offset="0" style="stop-color:#FFFFFF"/>
	<stop  offset="0.2962098" style="stop-color:#B2B2B2"/>
	<stop  offset="0.5358952" style="stop-color:#F5FBFF"/>
	<stop  offset="0.747255" style="stop-color:#C6C6C6"/>
	<stop  offset="1" style="stop-color:#00B1EB"/>
</linearGradient>
<path style="fill:url(#SVGID_00000085246161219396627040000000105475400305511582_);" d="M110.7524948,39.1464462
	c-0.4110031,0.6176529-10.1382065,15.2598915-16.5893326,27.0430222
	c-14.7368317,26.9181137-16.9935913,61.6797104-16.9935913,95.3713226c0,27.0054169,1.2173538,41.1954956,1.985405,48.4170227
	c0.6955185,1.1457367,5.4843216,9.0343933,5.4843216,9.0343933s6.3330307-1.1169739,8.4889832-1.7006989
	c-0.815918-8.3162537-2.7919464-31.8258057-2.7919464-55.7507172c0-31.5511932,1.6671219-64.0079575,15.3762207-89.0487823
	c6.174675-11.2779846,15.9041748-25.9248161,16.0015259-26.0713081L110.7524948,39.1464462z"/>
<g>
	<path class="st15" d="M131.0336456,268.8646545c-0.0463867-0.4882812-4.495224-50.1241455-1.4586487-85.2580566
		c3.4382477-39.7813721,6.9555969-54.5272675,32.7337189-91.2850342l2.6826172,1.5144348
		c-19.5019836,29.6998138-28.4607391,41.5458069-31.6000214,88.5516968
		c-2.3259888,34.8282166,0.2463531,85.2801208,0.2917633,85.7654724L131.0336456,268.8646545z"/>
</g>
<polygon class="st16" points="121.7140808,46.4407005 124.158783,47.9972916 164.7445526,93.6946182 162.3087158,92.3215637 "/>
<path class="st17" d="M121.7140808,46.4407005c0,0-0.2031097,0.2558174-0.5774231,0.7463455
	c-3.7561493,4.9223099-20.8855057,23.7631187-27.3235321,62.7968788
	c-2.8313065,17.1662598-4.2258377,22.4886551-3.4693527,53.2180252c0.1912079,7.7670135,2.7845078,54.1095581,2.7845078,54.1095581
	l34.7809982,52.3982391l3.1243668-0.8450928c0,0-2.5185394-29.9960785-2.333313-58.0443726
	c0.2551575-38.635498,3.460022-54.3359833,9.7306519-73.6736908c5.8173981-17.940033,23.8777313-44.8250275,23.8777313-44.8250275"
	/>
<linearGradient id="SVGID_00000075853444446459431110000004528724492312306078_" gradientUnits="userSpaceOnUse" x1="57.332428" y1="212.5690155" x2="170.7537231" y2="99.1477127">
	<stop  offset="0" style="stop-color:#FFFFFF"/>
	<stop  offset="0.2962098" style="stop-color:#00B1EB"/>
	<stop  offset="0.5358952" style="stop-color:#F5FBFF"/>
	<stop  offset="1" style="stop-color:#00B1EB"/>
</linearGradient>
<path style="opacity:0.6;fill:url(#SVGID_00000075853444446459431110000004528724492312306078_);" d="M150.6533966,84.5656967
	l-39.9009399-45.4192505c-0.4110107,0.6176147-10.1381836,15.2598877-16.5892944,27.0430298
	c-14.7368774,26.9180908-16.9935913,61.6796875-16.9935913,95.3712845c0,27.0054321,1.2173462,41.1954956,1.9853516,48.4170532
	l38.178772,62.5924683c-0.8166504-7.6785278-2.7805176-29.1290283-2.7805176-57.8434448
	c0-35.8237305,2.791626-72.7851562,18.4610596-101.4067459C139.8736115,100.7912827,150.2163849,85.222435,150.6533966,84.5656967z"
	/>
<polygon class="st11" points="121.7140808,46.4407005 110.7524567,39.1464462 150.6533966,84.5656967 162.3087158,92.3215637 "/>
<line class="st19" x1="110.1498184" y1="42.6064873" x2="147.6417999" y2="85.2836304"/>
<g>
	<g>
		<line class="st20" x1="77.1584396" y1="57.2117767" x2="98.9523926" y2="51.591301"/>
		<g>
			<polygon class="st21" points="97.4012756,55.8917427 110.1053238,48.7176743 95.5149612,48.5773582 			"/>
		</g>
	</g>
</g>
<g>
	<g>
		<line class="st20" x1="108.8807983" y1="94.0963669" x2="130.6747589" y2="88.4758911"/>
		<g>
			<polygon class="st21" points="129.123642,92.7763367 141.8276825,85.6022644 127.2373199,85.4619522 			"/>
		</g>
	</g>
</g>
<g>
	<g>
		<line class="st20" x1="92.4076767" y1="75.0338669" x2="114.2016296" y2="69.4133911"/>
		<g>
			<polygon class="st21" points="112.6505127,73.7138367 125.3545609,66.5397644 110.7641983,66.3994522 			"/>
		</g>
	</g>
</g>
<g>
	<g>
		<line class="st22" x1="72.9345627" y1="75.5818329" x2="89.8106384" y2="71.2296295"/>
		<g>
			<polygon class="st23" points="88.6095352,74.5596695 98.4468689,69.0044479 87.1488724,68.8957977 			"/>
		</g>
	</g>
</g>
<g>
	<g>
		<line class="st22" x1="64.0703278" y1="100.3171234" x2="80.9463959" y2="95.9649277"/>
		<g>
			<polygon class="st23" points="79.7452927,99.29496 89.5826263,93.7397461 78.2846298,93.6310883 			"/>
		</g>
	</g>
</g>
<g>
	<g>
		<line class="st22" x1="60.0700226" y1="123.8224716" x2="76.9460907" y2="119.4702759"/>
		<g>
			<polygon class="st23" points="75.7449951,122.8003082 85.5823212,117.2450943 74.2843246,117.1364441 			"/>
		</g>
	</g>
</g>
<g>
	<g>
		<line class="st22" x1="57.8506889" y1="145.3575592" x2="74.7267532" y2="141.0053711"/>
		<g>
			<polygon class="st23" points="73.5256577,144.3354034 83.3629837,138.7801819 72.0649872,138.6715393 			"/>
		</g>
	</g>
</g>
<g>
	<g>
		<line class="st22" x1="56.8505859" y1="166.9723816" x2="73.7266617" y2="162.6201782"/>
		<g>
			<polygon class="st23" points="72.5255585,165.9502258 82.3628922,160.3950043 71.0648956,160.2863464 			"/>
		</g>
	</g>
</g>
<g>
	<g>
		<line class="st22" x1="56.8505898" y1="186.8981781" x2="73.7266541" y2="182.54599"/>
		<g>
			<polygon class="st23" points="72.5255585,185.8760223 82.3628845,180.3208008 71.064888,180.2121582 			"/>
		</g>
	</g>
</g>
<g>
	<g>
		<line class="st22" x1="56.8505898" y1="206.8240051" x2="73.7266541" y2="202.4718018"/>
		<g>
			<polygon class="st23" points="72.5255585,205.8018494 82.3628845,200.2466278 71.064888,200.13797 			"/>
		</g>
	</g>
</g>
<g>
	<g>
		<line class="st22" x1="104.2637558" y1="116.2869492" x2="121.1398315" y2="111.9347534"/>
		<g>
			<polygon class="st23" points="119.9387283,115.2647858 129.776062,109.7095718 118.4780655,109.6009216 			"/>
		</g>
	</g>
</g>
<g>
	<g>
		<line class="st22" x1="89.0564346" y1="161.4080811" x2="105.9325027" y2="157.0558777"/>
		<g>
			<polygon class="st23" points="104.7314072,160.38591 114.5687332,154.8307037 103.2707367,154.7220459 			"/>
		</g>
	</g>
</g>
<g>
	<g>
		<line class="st22" x1="86.5303421" y1="184.2567444" x2="103.4064102" y2="179.9045563"/>
		<g>
			<polygon class="st23" points="102.2053146,183.2345886 112.0426407,177.6793671 100.7446442,177.5707245 			"/>
		</g>
	</g>
</g>
<g>
	<g>
		<line class="st22" x1="84.4883575" y1="206.8240051" x2="101.3644333" y2="202.4718018"/>
		<g>
			<polygon class="st23" points="100.1633301,205.8018494 110.0006638,200.2466278 98.7026672,200.13797 			"/>
		</g>
	</g>
</g>
<g>
	<g>
		<line class="st22" x1="84.4883652" y1="229.7127991" x2="101.3644333" y2="225.360611"/>
		<g>
			<polygon class="st23" points="100.1633377,228.6906433 110.0006638,223.1354218 98.7026672,223.0267792 			"/>
		</g>
	</g>
</g>
<g>
	<g>
		<line class="st22" x1="85.8429489" y1="251.9281616" x2="102.719017" y2="247.5759583"/>
		<g>
			<polygon class="st23" points="101.5179214,250.9060059 111.3552475,245.3507843 100.057251,245.2421265 			"/>
		</g>
	</g>
</g>
<g>
	<g>
		<line class="st22" x1="94.4666595" y1="138.8475189" x2="111.3427277" y2="134.4953156"/>
		<g>
			<polygon class="st23" points="110.1416321,137.8253479 119.9789581,132.2701416 108.6809616,132.1614838 			"/>
		</g>
	</g>
</g>
<g>
	<g>
		<line class="st22" x1="85.5891724" y1="96.4605026" x2="102.4652481" y2="92.1083069"/>
		<g>
			<polygon class="st23" points="101.2641449,95.4383392 111.1014786,89.8831253 99.8034821,89.7744751 			"/>
		</g>
	</g>
</g>
<g>
	<g>
		<line class="st22" x1="76.7249374" y1="121.1957932" x2="93.6010056" y2="116.8435974"/>
		<g>
			<polygon class="st23" points="92.3999023,120.1736298 102.237236,114.6184158 90.9392395,114.509758 			"/>
		</g>
	</g>
</g>
<g>
	<g>
		<line class="st22" x1="72.7246399" y1="144.7011414" x2="89.600708" y2="140.3489532"/>
		<g>
			<polygon class="st23" points="88.3996124,143.6789856 98.2369385,138.123764 86.938942,138.0151215 			"/>
		</g>
	</g>
</g>
<g>
	<g>
		<line class="st22" x1="70.5053024" y1="166.2362366" x2="87.3813705" y2="161.8840485"/>
		<g>
			<polygon class="st23" points="86.180275,165.2140808 96.017601,159.6588593 84.7196045,159.5502167 			"/>
		</g>
	</g>
</g>
<g>
	<g>
		<line class="st22" x1="69.5052032" y1="187.8510437" x2="86.3812714" y2="183.4988403"/>
		<g>
			<polygon class="st23" points="85.1801682,186.8288879 95.0175018,181.2736664 83.7195053,181.1650085 			"/>
		</g>
	</g>
</g>
<g>
	<g>
		<line class="st22" x1="69.5052032" y1="207.7768555" x2="86.3812714" y2="203.4246674"/>
		<g>
			<polygon class="st23" points="85.1801758,206.7546997 95.0175018,201.1994781 83.7195053,201.0908356 			"/>
		</g>
	</g>
</g>
<g>
	<g>
		<line class="st22" x1="69.5052032" y1="227.7026825" x2="86.3812714" y2="223.3504791"/>
		<g>
			<polygon class="st23" points="85.1801758,226.6805267 95.0175018,221.1253052 83.7195053,221.0166473 			"/>
		</g>
	</g>
</g>
</svg>
