<?xml version="1.0" encoding="utf-8"?>
<!-- Generator: Adobe Illustrator 26.1.0, SVG Export Plug-In . SVG Version: 6.00 Build 0)  -->
<svg version="1.1" id="Ebene_1" xmlns="http://www.w3.org/2000/svg" xmlns:xlink="http://www.w3.org/1999/xlink" x="0px" y="0px"
	 viewBox="0 0 226.7716522 340.1574707" style="enable-background:new 0 0 226.7716522 340.1574707;" xml:space="preserve">
<style type="text/css">
	.st0{fill-rule:evenodd;clip-rule:evenodd;fill:#9D9D9C;}
	.st1{fill-rule:evenodd;clip-rule:evenodd;fill:#3C3C3B;}
	.st2{fill-rule:evenodd;clip-rule:evenodd;fill:none;stroke:#706F6F;stroke-miterlimit:3.8636899;}
	
		.st3{fill-rule:evenodd;clip-rule:evenodd;fill:none;stroke:#DADADA;stroke-width:0.8;stroke-linecap:round;stroke-linejoin:round;stroke-miterlimit:3.8636899;}
	.st4{fill:#72ACC8;}
	.st5{opacity:0.8;fill:#F18972;}
	.st6{opacity:0.8;fill:url(#SVGID_1_);}
	.st7{fill:#F18972;}
	.st8{opacity:0.8;fill:url(#SVGID_00000081613678550082167620000001200066464836895909_);}
	.st9{fill:url(#SVGID_00000023240569266781205070000011661056226364521604_);}
	.st10{fill:url(#SVGID_00000054241317172080967550000009358258743717917579_);}
	.st11{fill:#F8BDAA;}
	.st12{opacity:0.65;fill:url(#SVGID_00000136388041083740786510000015154296713581039261_);}
	.st13{fill:none;stroke:#FFFFFF;stroke-width:0.5;stroke-linecap:round;stroke-linejoin:round;stroke-miterlimit:3.8636899;}
	.st14{fill:none;stroke:#419D64;stroke-width:1.5486932;stroke-linecap:round;stroke-miterlimit:3.8636899;}
	.st15{fill:#419D64;}
	
		.st16{fill-rule:evenodd;clip-rule:evenodd;fill:none;stroke:#DA4C63;stroke-width:2;stroke-linecap:round;stroke-miterlimit:3.8636899;}
	.st17{fill:none;stroke:#DA4C63;stroke-width:2;stroke-linecap:round;stroke-miterlimit:3.8636899;}
	.st18{fill:#DA4C63;}
</style>
<g>
	<polygon class="st0" points="118.198288,56.4929237 166.2979736,110.8750153 147.1153564,127.7835312 101.3061371,71.6672287 	"/>
	<polygon class="st1" points="166.2979736,110.8750153 166.2979736,138.3740692 147.1153564,127.7835312 	"/>
	<line class="st2" x1="101.3061371" y1="71.6672287" x2="147.1153564" y2="127.5193863"/>
	<line class="st3" x1="166.2979736" y1="110.8750153" x2="147.1153564" y2="127.7835312"/>
</g>
<g>
	<polygon class="st0" points="125.716713,199.9767914 166.2979736,252.4672241 147.1153564,269.3757324 108.4202347,211.9401703 	
		"/>
	<polygon class="st1" points="166.2979736,252.4672241 166.2979736,279.9662781 147.1153564,269.3757324 	"/>
	<line class="st2" x1="108.4202347" y1="211.9401703" x2="147.1153564" y2="269.1116028"/>
	<line class="st3" x1="166.2979736" y1="252.4672241" x2="147.1153564" y2="269.3757324"/>
</g>
<polygon class="st4" points="137.071228,282.7485962 151.284729,283.6645508 112.6158524,225.1940155 100.1486893,224.3342133 "/>
<polygon class="st4" points="83.4384232,223.1765137 97.4384232,224.1766205 133.4020386,282.5147705 119.3133011,281.5637207 "/>
<path class="st5" d="M124.2137527,122.2876053L84.4154968,69.8192596
	c0.1928711,0.394043,20.5042114,46.5299377,20.5042114,82.8082581c0,35.7105103-6.6700668,68.7153625-7.4812851,71.5491028
	l35.8748703,58.3871918c0.8112183-2.8337402,11.6265259-41.3170624,11.6265259-77.0275726
	C144.9398193,169.2579193,124.4066238,122.6816483,124.2137527,122.2876053z"/>
<linearGradient id="SVGID_1_" gradientUnits="userSpaceOnUse" x1="82.9183426" y1="245.1687622" x2="165.0066223" y2="163.0804749">
	<stop  offset="0.2582135" style="stop-color:#BCE4FA"/>
	<stop  offset="0.6233844" style="stop-color:#F5FBFF"/>
	<stop  offset="0.8286529" style="stop-color:#72ACC8"/>
	<stop  offset="1" style="stop-color:#00B1EB"/>
</linearGradient>
<path class="st6" d="M119.3133011,281.5637207l14.2758102,0.9199219c2.8338013-10.482666,11.350708-44.7518311,11.350708-77.9475098
	c0-39.5849609-19.8798752-80.5248947-20.7260666-82.2485275l-12.5678711,6.1679611
	c0.1928711,0.394043,19.2939377,39.8022461,19.2939377,76.0805664
	C130.9398193,240.2466431,120.1245193,278.7299805,119.3133011,281.5637207z"/>
<path class="st7" d="M133.4020386,282.5147705l4.0563965,0.2614136
	c2.4445801-9.8953247,11.0707397-47.1571655,11.0707397-80.1399536c0-38.4257812-20.5820236-81.6572189-20.7900314-82.0898361
	l-3.6044922,1.7338867c0.2036133,0.4243164,20.3945236,42.8549728,20.3945236,80.3559494
	C144.5291748,236.0476685,135.5302734,274.006958,133.4020386,282.5147705z"/>
<linearGradient id="SVGID_00000134207908428652373010000004662993352544950719_" gradientUnits="userSpaceOnUse" x1="97.9939499" y1="243.6713104" x2="183.7341766" y2="157.931076">
	<stop  offset="0.2582135" style="stop-color:#BCE4FA"/>
	<stop  offset="0.6233844" style="stop-color:#F5FBFF"/>
	<stop  offset="0.8286529" style="stop-color:#72ACC8"/>
	<stop  offset="1" style="stop-color:#00B1EB"/>
</linearGradient>
<path style="opacity:0.8;fill:url(#SVGID_00000134207908428652373010000004662993352544950719_);" d="M137.071228,282.7485962
	l14.213501,0.9159546c3.3796997-13.6711426,11.2000122-48.8827515,11.2000122-82.0014648
	c0-39.5175781-21.1220703-85.0825119-22.0214844-87.0029221l-12.6787033,5.9365234
	c0.2070312,0.4423828,20.7001877,44.63134,20.7001877,81.0663986
	C148.4847412,235.126709,139.7749634,272.0842285,137.071228,282.7485962z"/>
<linearGradient id="SVGID_00000067950811152943142830000002111562663524579225_" gradientUnits="userSpaceOnUse" x1="88.9526443" y1="115.3536301" x2="107.5353165" y2="83.1674957">
	<stop  offset="0.194151" style="stop-color:#BCE4FA"/>
	<stop  offset="0.4677678" style="stop-color:#EAF6FE"/>
	<stop  offset="0.7444785" style="stop-color:#A1DAF8"/>
</linearGradient>
<polygon style="fill:url(#SVGID_00000067950811152943142830000002111562663524579225_);" points="72.6706009,75.6912918 
	111.6458817,128.4555664 124.1346512,122.2802811 84.4154968,69.8192596 "/>
<linearGradient id="SVGID_00000131330220757002241040000012319036863732346527_" gradientUnits="userSpaceOnUse" x1="104.8158264" y1="107.3356857" x2="122.9432755" y2="75.9380188">
	<stop  offset="0.194151" style="stop-color:#BCE4FA"/>
	<stop  offset="0.4677678" style="stop-color:#EAF6FE"/>
	<stop  offset="0.7444785" style="stop-color:#A1DAF8"/>
</linearGradient>
<polygon style="fill:url(#SVGID_00000131330220757002241040000012319036863732346527_);" points="87.4260101,68.3880692 
	99.6320114,62.4792557 140.4632568,114.6601639 127.7845535,120.5966873 "/>
<polygon class="st11" points="84.4154968,69.8192596 87.4260101,68.3880692 127.7845535,120.5966873 124.1346512,122.2802811 "/>
<linearGradient id="SVGID_00000051372234330982732820000012305212110504820885_" gradientUnits="userSpaceOnUse" x1="67.3015137" y1="195.2265778" x2="129.4724884" y2="159.3321533">
	<stop  offset="0" style="stop-color:#FFFFFF"/>
	<stop  offset="0.2962098" style="stop-color:#72ACC8"/>
	<stop  offset="0.5358952" style="stop-color:#F5FBFF"/>
	<stop  offset="1" style="stop-color:#00B1EB"/>
</linearGradient>
<path style="opacity:0.65;fill:url(#SVGID_00000051372234330982732820000012305212110504820885_);" d="M111.6458817,128.4555664
	L72.6706009,75.7605667c0.1928711,0.394043,19.2939453,39.8022461,19.2939453,76.0805588
	c0,35.7105103-7.7149048,68.5016479-8.526123,71.3353882l35.8748779,58.387207
	c0.8112183-2.8337402,11.6265182-41.3170776,11.6265182-77.0275879
	C130.9398193,168.2578125,111.8387527,128.8496094,111.6458817,128.4555664z"/>
<line class="st13" x1="72.6706009" y1="75.6912918" x2="111.6458817" y2="128.4555664"/>
<g id="Ebene_3">
	<g>
		<g>
			<line class="st14" x1="61.9141998" y1="112.8752213" x2="78.7902756" y2="108.5230179"/>
			<g>
				<polygon class="st15" points="77.5891724,111.8530579 87.426506,106.2978363 76.1285095,106.1891861 				"/>
			</g>
		</g>
	</g>
	<g>
		<g>
			<line class="st14" x1="66.646431" y1="129.4556732" x2="83.5224991" y2="125.1034775"/>
			<g>
				<polygon class="st15" points="82.3213959,128.4335022 92.1587296,122.8782959 80.860733,122.7696381 				"/>
			</g>
		</g>
	</g>
	<g>
		<g>
			<line class="st14" x1="69.3240891" y1="183.6456757" x2="86.2001572" y2="179.2934723"/>
			<g>
				<polygon class="st15" points="84.999054,182.6235199 94.8363876,177.0682983 83.5383911,176.9596405 				"/>
			</g>
		</g>
	</g>
	<g>
		<g>
			<line class="st14" x1="66.646431" y1="204.5558624" x2="83.5224991" y2="200.2036743"/>
			<g>
				<polygon class="st15" points="82.3214035,203.5337067 92.1587296,197.9784851 80.860733,197.8698425 				"/>
			</g>
		</g>
	</g>
	<g>
		<g>
			<line class="st14" x1="63.8959312" y1="226.466156" x2="80.7720032" y2="222.1139526"/>
			<g>
				<polygon class="st15" points="79.5709076,225.4440002 89.4082336,219.8887787 78.1102371,219.7801208 				"/>
			</g>
		</g>
	</g>
	<g>
		<g>
			<line class="st14" x1="56.2647896" y1="96.6236115" x2="73.1408615" y2="92.2714157"/>
			<g>
				<polygon class="st15" points="71.9397583,95.6014481 81.777092,90.0462341 70.4790955,89.9375839 				"/>
			</g>
		</g>
	</g>
	<g>
		<g>
			<line class="st14" x1="89.0493088" y1="152.9399414" x2="105.9253769" y2="148.5877533"/>
			<g>
				<polygon class="st15" points="104.7242813,151.9177856 114.5616074,146.3625641 103.2636108,146.2539215 				"/>
			</g>
		</g>
	</g>
	<g>
		<g>
			<line class="st14" x1="100.629921" y1="229.712677" x2="117.5059891" y2="225.3604736"/>
			<g>
				<polygon class="st15" points="116.3048859,228.6905212 126.1422195,223.1352997 114.844223,223.0266418 				"/>
			</g>
		</g>
	</g>
	<g>
		<g>
			<line class="st14" x1="97.2694168" y1="252.8456421" x2="114.1454849" y2="248.493454"/>
			<g>
				<polygon class="st15" points="112.9443893,251.8234863 122.7817154,246.2682648 111.4837189,246.1596222 				"/>
			</g>
		</g>
	</g>
	<g>
		<g>
			<line class="st14" x1="91.4829254" y1="277.8788757" x2="108.3589935" y2="273.5266724"/>
			<g>
				<polygon class="st15" points="107.1578979,276.85672 116.995224,271.3014832 105.6972275,271.1928406 				"/>
			</g>
		</g>
	</g>
	<g>
		<g>
			<line class="st14" x1="81.9817352" y1="135.1304932" x2="98.857811" y2="130.7782898"/>
			<g>
				<polygon class="st15" points="97.6567078,134.1083221 107.4940414,128.5531158 96.1960449,128.444458 				"/>
			</g>
		</g>
	</g>
	<line class="st16" x1="93.8022156" y1="155.0412903" x2="128.6472321" y2="198.8942871"/>
	<g>
		<g>
			<line class="st14" x1="94.6642303" y1="170.0787354" x2="111.5402985" y2="165.7265472"/>
			<g>
				<polygon class="st15" points="110.3391953,169.0565796 120.1765289,163.501358 108.8785324,163.3927002 				"/>
			</g>
		</g>
	</g>
	<g>
		<g>
			<line class="st14" x1="72.894928" y1="134.9258118" x2="89.7710037" y2="130.5736084"/>
			<g>
				<polygon class="st15" points="88.5699005,133.903656 98.4072342,128.3484344 87.1092377,128.2397766 				"/>
			</g>
		</g>
	</g>
	<g>
		<g>
			<line class="st14" x1="77.6271591" y1="151.5062714" x2="94.5032272" y2="147.154068"/>
			<g>
				<polygon class="st15" points="93.302124,150.4841003 103.1394577,144.928894 91.8414612,144.8202362 				"/>
			</g>
		</g>
	</g>
	<g>
		<g>
			<line class="st14" x1="82.707222" y1="204.7953796" x2="99.5832901" y2="200.4431763"/>
			<g>
				<polygon class="st15" points="98.3821869,203.7732086 108.2195206,198.2179871 96.921524,198.1093445 				"/>
			</g>
		</g>
	</g>
	<g>
		<g>
			<line class="st14" x1="79.4289627" y1="226.0058594" x2="96.3050308" y2="221.6536713"/>
			<g>
				<polygon class="st15" points="95.1039352,224.9837036 104.9412613,219.4284821 93.6432648,219.3198395 				"/>
			</g>
		</g>
	</g>
	<g>
		<g>
			<line class="st14" x1="75.1769638" y1="250.0182495" x2="92.0530319" y2="245.6660461"/>
			<g>
				<polygon class="st15" points="90.8519363,248.9960938 100.6892624,243.4408722 89.3912659,243.3322144 				"/>
			</g>
		</g>
	</g>
	<g>
		<g>
			<line class="st14" x1="67.2455215" y1="118.6742096" x2="84.1215897" y2="114.3220139"/>
			<g>
				<polygon class="st15" points="82.9204865,117.6520462 92.7578201,112.0968323 81.4598236,111.9881821 				"/>
			</g>
		</g>
	</g>
	<g>
		<g>
			<line class="st17" x1="60.8280602" y1="168.9223633" x2="82.6220093" y2="163.3018951"/>
			<g>
				<polygon class="st18" points="81.0708923,167.6023407 93.7749329,160.4282684 79.1845779,160.2879486 				"/>
			</g>
		</g>
	</g>
	<g>
		<g>
			<line class="st17" x1="88.9811783" y1="205.1427765" x2="110.7751312" y2="199.5222931"/>
			<g>
				<polygon class="st18" points="109.2240143,203.8227386 121.9280548,196.6486664 107.3376923,196.5083466 				"/>
			</g>
		</g>
	</g>
	<g>
		<g>
			<line class="st17" x1="73.5301056" y1="186.439682" x2="95.3240509" y2="180.8191986"/>
			<g>
				<polygon class="st18" points="93.772934,185.1196442 106.4769821,177.9455872 91.8866196,177.8052673 				"/>
			</g>
		</g>
	</g>
</g>
</svg>
